<svg xmlns="http://www.w3.org/2000/svg" version="1.1" viewBox="245.61 85.48 167.88 195.97">
<path d="M0 0 C1.75445531 1.27849918 3.48581942 2.5895546 5.1875 3.9375 C6.03957031 4.58589844 6.89164063 5.23429687 7.76953125 5.90234375 C19.59158418 15.85273079 27.23986146 30.74312394 29.1875 45.9375 C29.84292413 55.74740228 29.66917022 65.59946717 29.59307575 75.42601776 C29.56778902 79.25094212 29.56569891 83.07588385 29.56097412 86.90087891 C29.54862339 94.11823858 29.51591091 101.33535111 29.47557616 108.55260277 C29.4306098 116.78010986 29.40880941 125.00762978 29.38879442 133.23522949 C29.34716955 150.13612843 29.27697429 167.03678795 29.1875 183.9375 C27.33813477 184.52319336 27.33813477 184.52319336 25.1875 184.9375 C22.77734375 183.56640625 22.77734375 183.56640625 20.125 181.5 C19.16851562 180.76910156 18.21203125 180.03820312 17.2265625 179.28515625 C16.22367188 178.51042969 15.22078125 177.73570312 14.1875 176.9375 C12.12973409 175.43101212 10.06745555 173.93066234 8 172.4375 C6.39583333 171.27083333 4.79166667 170.10416667 3.1875 168.9375 C-0.57639108 170.62258931 -2.26407416 172.70949394 -4.8125 175.9375 C-5.4725 175.9375 -6.1325 175.9375 -6.8125 175.9375 C-7.10125 176.55625 -7.39 177.175 -7.6875 177.8125 C-8.8125 179.9375 -8.8125 179.9375 -10.8125 181.9375 C-14.57234014 181.87927239 -16.55865293 179.50533026 -19.07421875 176.93945312 C-19.81091797 176.16504883 -19.81091797 176.16504883 -20.5625 175.375 C-21.06910156 174.85486328 -21.57570313 174.33472656 -22.09765625 173.79882812 C-23.34284405 172.51839916 -24.57861502 171.22882446 -25.8125 169.9375 C-29.09106192 171.3405527 -30.9266327 172.94898468 -33.1875 175.6875 C-33.79078125 176.39390625 -34.3940625 177.1003125 -35.015625 177.828125 C-35.60859375 178.52421875 -36.2015625 179.2203125 -36.8125 179.9375 C-41.84299954 185.74943637 -41.84299954 185.74943637 -45.1484375 186.390625 C-48.95090045 185.74387177 -50.57093338 183.85205632 -53.3125 181.1875 C-56.70896614 177.92460276 -60.11287865 174.85197251 -63.8125 171.9375 C-65.16397138 170.62255488 -66.50362542 169.29485142 -67.8125 167.9375 C-72.11528713 169.24137489 -74.71286312 171.49173827 -77.984375 174.421875 C-79.73809154 175.87581093 -81.44376653 176.9702808 -83.4375 178.0625 C-86.81599764 179.80212851 -86.81599764 179.80212851 -89.4375 182.125 C-91.8125 183.9375 -91.8125 183.9375 -96.8125 184.9375 C-97.1425 169.7575 -97.4725 154.5775 -97.8125 138.9375 C-108.4480444 139.09546769 -108.4480444 139.09546769 -119.08276367 139.29785156 C-120.42365237 139.30954237 -121.76455534 139.31973328 -123.10546875 139.328125 C-123.79241821 139.34858887 -124.47936768 139.36905273 -125.18713379 139.39013672 C-128.64803876 139.39263602 -130.67929876 139.01732285 -133.66918945 137.22558594 C-137.39751876 133.2454171 -138.0625598 129.48598198 -138.0871582 124.14086914 C-138.09669022 122.99940933 -138.10622223 121.85794952 -138.11604309 120.68190002 C-138.11513168 119.45784958 -138.11422028 118.23379913 -138.11328125 116.97265625 C-138.11756638 115.70659042 -138.1218515 114.4405246 -138.12626648 113.13609314 C-138.13200577 110.46046029 -138.13345008 107.78521372 -138.12817383 105.10961914 C-138.12238074 101.69220557 -138.13931387 98.27533426 -138.1625185 94.85801029 C-138.18084953 91.58372994 -138.17706952 88.30947864 -138.17578125 85.03515625 C-138.184991 83.81313004 -138.19420074 82.59110382 -138.20368958 81.33204651 C-138.16601662 74.40920768 -138.0119297 69.38195162 -133.10058594 64.09448242 C-129.86010418 62.45591616 -126.75790152 62.45817584 -123.203125 62.42578125 C-122.47631531 62.40783005 -121.74950562 62.38987885 -121.00067139 62.37138367 C-118.68800593 62.31736759 -116.37554579 62.2834144 -114.0625 62.25 C-112.4908569 62.21681907 -110.91924086 62.18232868 -109.34765625 62.14648438 C-105.50275254 62.06164672 -101.65790878 61.99479494 -97.8125 61.9375 C-97.77382813 60.14119141 -97.77382813 60.14119141 -97.734375 58.30859375 C-97.14156299 38.912025 -93.08970265 23.61965192 -79.625 9.125 C-70.37043901 0.49813967 -60.17402579 -5.20591632 -47.8125 -8.0625 C-47.03390625 -8.25070313 -46.2553125 -8.43890625 -45.453125 -8.6328125 C-29.83520531 -11.17418996 -13.31319137 -8.71794049 0 0 Z " fill="#2C333C" transform="translate(383.8125,95.0625)"/>
<path d="M0 0 C1.75445531 1.27849918 3.48581942 2.5895546 5.1875 3.9375 C6.03957031 4.58589844 6.89164063 5.23429687 7.76953125 5.90234375 C19.59158418 15.85273079 27.23986146 30.74312394 29.1875 45.9375 C29.84292413 55.74740228 29.66917022 65.59946717 29.59307575 75.42601776 C29.56778902 79.25094212 29.56569891 83.07588385 29.56097412 86.90087891 C29.54862339 94.11823858 29.51591091 101.33535111 29.47557616 108.55260277 C29.4306098 116.78010986 29.40880941 125.00762978 29.38879442 133.23522949 C29.34716955 150.13612843 29.27697429 167.03678795 29.1875 183.9375 C27.33813477 184.52319336 27.33813477 184.52319336 25.1875 184.9375 C22.77734375 183.56640625 22.77734375 183.56640625 20.125 181.5 C19.16851562 180.76910156 18.21203125 180.03820312 17.2265625 179.28515625 C16.22367188 178.51042969 15.22078125 177.73570312 14.1875 176.9375 C12.12973409 175.43101212 10.06745555 173.93066234 8 172.4375 C6.39583333 171.27083333 4.79166667 170.10416667 3.1875 168.9375 C-0.57639108 170.62258931 -2.26407416 172.70949394 -4.8125 175.9375 C-5.4725 175.9375 -6.1325 175.9375 -6.8125 175.9375 C-7.10125 176.55625 -7.39 177.175 -7.6875 177.8125 C-8.8125 179.9375 -8.8125 179.9375 -10.8125 181.9375 C-14.57234014 181.87927239 -16.55865293 179.50533026 -19.07421875 176.93945312 C-19.81091797 176.16504883 -19.81091797 176.16504883 -20.5625 175.375 C-21.06910156 174.85486328 -21.57570313 174.33472656 -22.09765625 173.79882812 C-23.34284405 172.51839916 -24.57861502 171.22882446 -25.8125 169.9375 C-29.09106192 171.3405527 -30.9266327 172.94898468 -33.1875 175.6875 C-33.79078125 176.39390625 -34.3940625 177.1003125 -35.015625 177.828125 C-35.60859375 178.52421875 -36.2015625 179.2203125 -36.8125 179.9375 C-41.84299954 185.74943637 -41.84299954 185.74943637 -45.1484375 186.390625 C-48.95090045 185.74387177 -50.57093338 183.85205632 -53.3125 181.1875 C-56.70896614 177.92460276 -60.11287865 174.85197251 -63.8125 171.9375 C-65.16397138 170.62255488 -66.50362542 169.29485142 -67.8125 167.9375 C-72.11528713 169.24137489 -74.71286312 171.49173827 -77.984375 174.421875 C-79.73809154 175.87581093 -81.44376653 176.9702808 -83.4375 178.0625 C-86.81599764 179.80212851 -86.81599764 179.80212851 -89.4375 182.125 C-91.8125 183.9375 -91.8125 183.9375 -96.8125 184.9375 C-97.1425 169.7575 -97.4725 154.5775 -97.8125 138.9375 C-108.4480444 139.09546769 -108.4480444 139.09546769 -119.08276367 139.29785156 C-120.42365237 139.30954237 -121.76455534 139.31973328 -123.10546875 139.328125 C-123.79241821 139.34858887 -124.47936768 139.36905273 -125.18713379 139.39013672 C-128.64803876 139.39263602 -130.67929876 139.01732285 -133.66918945 137.22558594 C-137.39751876 133.2454171 -138.0625598 129.48598198 -138.0871582 124.14086914 C-138.09669022 122.99940933 -138.10622223 121.85794952 -138.11604309 120.68190002 C-138.11513168 119.45784958 -138.11422028 118.23379913 -138.11328125 116.97265625 C-138.11756638 115.70659042 -138.1218515 114.4405246 -138.12626648 113.13609314 C-138.13200577 110.46046029 -138.13345008 107.78521372 -138.12817383 105.10961914 C-138.12238074 101.69220557 -138.13931387 98.27533426 -138.1625185 94.85801029 C-138.18084953 91.58372994 -138.17706952 88.30947864 -138.17578125 85.03515625 C-138.184991 83.81313004 -138.19420074 82.59110382 -138.20368958 81.33204651 C-138.16601662 74.40920768 -138.0119297 69.38195162 -133.10058594 64.09448242 C-129.86010418 62.45591616 -126.75790152 62.45817584 -123.203125 62.42578125 C-122.47631531 62.40783005 -121.74950562 62.38987885 -121.00067139 62.37138367 C-118.68800593 62.31736759 -116.37554579 62.2834144 -114.0625 62.25 C-112.4908569 62.21681907 -110.91924086 62.18232868 -109.34765625 62.14648438 C-105.50275254 62.06164672 -101.65790878 61.99479494 -97.8125 61.9375 C-97.77382813 60.14119141 -97.77382813 60.14119141 -97.734375 58.30859375 C-97.14156299 38.912025 -93.08970265 23.61965192 -79.625 9.125 C-70.37043901 0.49813967 -60.17402579 -5.20591632 -47.8125 -8.0625 C-47.03390625 -8.25070313 -46.2553125 -8.43890625 -45.453125 -8.6328125 C-29.83520531 -11.17418996 -13.31319137 -8.71794049 0 0 Z M-51.8125 8.9375 C-52.47121094 9.19273438 -53.12992188 9.44796875 -53.80859375 9.7109375 C-66.00964463 15.0627063 -74.59061659 24.87744234 -79.6887207 37.02539062 C-82.42096891 44.73959597 -82.15247236 52.4977672 -82 60.5625 C-81.98491606 61.96222508 -81.97123425 63.361966 -81.95898438 64.76171875 C-81.92389121 68.15405844 -81.87472265 71.54556775 -81.8125 74.9375 C-86.62023064 71.65874146 -86.62023064 71.65874146 -87.47192383 68.46386719 C-87.48763428 67.56313477 -87.50334473 66.66240234 -87.51953125 65.734375 C-87.54853516 64.7546875 -87.57753906 63.775 -87.60742188 62.765625 C-87.61322266 61.74984375 -87.61902344 60.7340625 -87.625 59.6875 C-87.65013672 58.65625 -87.67527344 57.625 -87.70117188 56.5625 C-87.76001562 54.02045011 -87.79631507 51.48012084 -87.8125 48.9375 C-88.1425 48.9375 -88.4725 48.9375 -88.8125 48.9375 C-88.84147435 53.20831914 -88.85928996 57.47911309 -88.875 61.75 C-88.88337891 62.96494141 -88.89175781 64.17988281 -88.90039062 65.43164062 C-88.90522461 67.17670898 -88.90522461 67.17670898 -88.91015625 68.95703125 C-88.91801147 70.56735229 -88.91801147 70.56735229 -88.92602539 72.21020508 C-88.93444588 75.03249365 -88.93444588 75.03249365 -87.8125 77.9375 C-90.68340587 77.54151298 -91.60165127 77.2051157 -93.4375 74.875 C-94.118125 73.9159375 -94.118125 73.9159375 -94.8125 72.9375 C-95.4725 72.9375 -96.1325 72.9375 -96.8125 72.9375 C-96.86641993 74.72883978 -96.90525571 76.52063899 -96.9375 78.3125 C-96.96070313 79.31023437 -96.98390625 80.30796875 -97.0078125 81.3359375 C-97.08466848 84.10012173 -97.08466848 84.10012173 -94.8125 85.9375 C-92.44740639 86.23809943 -90.06808119 86.43265012 -87.6875 86.5625 C-86.40617187 86.63726562 -85.12484375 86.71203125 -83.8046875 86.7890625 C-82.81726563 86.83804688 -81.82984375 86.88703125 -80.8125 86.9375 C-80.82410156 88.01644531 -80.83570313 89.09539062 -80.84765625 90.20703125 C-80.9004034 93.94450285 -80.9004034 93.94450285 -80.25 97.625 C-79.84948144 100.65749769 -80.00254281 102.10264982 -80.8125 104.9375 C-80.4825 105.9275 -80.1525 106.9175 -79.8125 107.9375 C-80.1425 108.9275 -80.4725 109.9175 -80.8125 110.9375 C-80.565 111.80375 -80.565 111.80375 -80.3125 112.6875 C-79.59832185 115.90130169 -80.34001259 118.68258671 -80.8125 121.9375 C-81.12554086 128.53813266 -81.12554086 128.53813266 -79.8125 134.9375 C-78.8225 134.9375 -77.8325 134.9375 -76.8125 134.9375 C-78.04033203 135.38029297 -78.04033203 135.38029297 -79.29296875 135.83203125 C-81.96821686 137.6224988 -81.96821686 137.6224988 -82.22509766 139.96630859 C-82.30539627 142.53431003 -82.24702732 145.05867159 -82.125 147.625 C-82.10244141 148.51767578 -82.07988281 149.41035156 -82.05664062 150.33007812 C-81.99770574 152.53424272 -81.91550818 154.73502672 -81.8125 156.9375 C-77.98943969 155.10179462 -75.10647876 152.75494481 -71.91015625 149.984375 C-69.8125 148.9375 -69.8125 148.9375 -67.4296875 149.43359375 C-64.16919132 151.30716245 -61.56445283 153.65696801 -58.875 156.25 C-52.5446014 163.25781223 -52.5446014 163.25781223 -44.8125 166.9375 C-43.34379272 165.52430081 -43.34379272 165.52430081 -41.8125 163.625 C-38.73232914 159.99782205 -35.58380551 156.45041172 -32.375 152.9375 C-31.51003906 151.98875 -30.64507812 151.04 -29.75390625 150.0625 C-29.11324219 149.36125 -28.47257812 148.66 -27.8125 147.9375 C-22.89314098 152.05369836 -18.28602044 156.34160362 -13.8125 160.9375 C-9.92852311 159.38747253 -7.78270381 156.93273379 -5.0625 153.8125 C-4.26328125 152.90242187 -3.4640625 151.99234375 -2.640625 151.0546875 C-2.03734375 150.35601562 -1.4340625 149.65734375 -0.8125 148.9375 C2.74037745 150.21479975 5.43253365 151.70625035 8.375 154.0625 C10.97088971 156.35237239 10.97088971 156.35237239 14.1875 156.9375 C14.30485711 142.85444631 14.39240874 128.77146961 14.44656086 114.68802547 C14.4725621 108.14723084 14.50778678 101.60676663 14.56469727 95.06616211 C14.619355 88.74430188 14.64899163 82.42275784 14.66188622 76.1006794 C14.6710657 73.69873649 14.6889898 71.29680925 14.71615028 68.89500237 C14.91178102 50.86467338 14.34137507 34.82359873 1.1875 20.9375 C-0.93112708 19.64878757 -0.93112708 19.64878757 -2.8125 18.9375 C-2.8125 18.2775 -2.8125 17.6175 -2.8125 16.9375 C-17.34617676 6.20809286 -34.55733886 1.73480116 -51.8125 8.9375 Z " fill="#192123" transform="translate(383.8125,95.0625)"/>
<path d="M0 0 C6.51819877 1.89536276 12.17814801 4.5178994 18 8 C18 8.66 18 9.32 18 10 C18.5775 10.061875 19.155 10.12375 19.75 10.1875 C24.88273507 12.04098766 28.66435507 19.18512542 31 24 C31 25.32 31 26.64 31 28 C31.66 28 32.32 28 33 28 C36.03149304 36.08398143 36.14565458 44.02980503 36.11352539 52.546875 C36.11367142 53.57216812 36.11381744 54.59746124 36.1139679 55.65382385 C36.11327511 59.01923795 36.10551253 62.38459566 36.09765625 65.75 C36.09578982 68.09269175 36.09436698 70.43538389 36.09336853 72.77807617 C36.0895611 78.9265044 36.07974602 85.07490879 36.06866455 91.22332764 C36.05841222 97.50435056 36.05386273 103.78537736 36.04882812 110.06640625 C36.03812211 122.37761461 36.02106707 134.68880532 36 147 C31.82931084 144.5168035 27.92744238 141.84932094 24 139 C20.11602311 140.55002747 17.97020381 143.00476621 15.25 146.125 C14.45078125 147.03507813 13.6515625 147.94515625 12.828125 148.8828125 C11.92320312 149.93082031 11.92320312 149.93082031 11 151 C6.71640327 149.1144852 4.84896408 146.64034299 2 143 C5.06775511 144.42431487 7.21040099 145.90780074 10 148 C10 140.74 10 133.48 10 126 C7.03 125.01 7.03 125.01 4 124 C2.85149227 123.30845173 1.72172153 122.58354534 0.625 121.8125 C-2.65006604 119.88768049 -5.08501603 119.72601077 -8.890625 120.44140625 C-11.8935257 121.23661884 -14.81524087 122.1989743 -17.7265625 123.28125 C-20.45447943 124.14368422 -23.17760041 124.55057639 -26 125 C-26.24856328 119.73504728 -26.4292505 114.4735539 -26.54931641 109.20410156 C-26.5993882 107.41508469 -26.66747426 105.62647269 -26.75439453 103.83886719 C-27.45529711 89.04569984 -27.45529711 89.04569984 -23.97558594 84.15429688 C-21.41691712 82.07749937 -18.91720815 80.52239613 -16 79 C-14.74357677 78.1658449 -13.49257795 77.32339267 -12.25 76.46875 C-10.64125 75.49421875 -10.64125 75.49421875 -9 74.5 C-7.906875 73.8296875 -6.81375 73.159375 -5.6875 72.46875 C-3 71 -3 71 -1 71 C-1 70.34 -1 69.68 -1 69 C0.093125 68.566875 1.18625 68.13375 2.3125 67.6875 C5.15760851 66.48534148 6.86448469 65.24229108 9 63 C9.99 63 10.98 63 12 63 C12.49077962 69.38013511 12.49077962 69.38013511 10.5 71.89453125 C7.11549941 74.74491534 3.4860472 77.07566842 -0.25 79.4375 C-0.97574219 79.90220703 -1.70148438 80.36691406 -2.44921875 80.84570312 C-3.17238281 81.30783203 -3.89554687 81.76996094 -4.640625 82.24609375 C-5.35798828 82.71619873 -6.07535156 83.18630371 -6.81445312 83.6706543 C-9 85 -9 85 -11.29492188 86.01098633 C-13.67574263 87.13741613 -15.23833864 88.0313965 -17 90 C-18.12512469 94.2749395 -18.07393907 98.41312524 -18 102.8125 C-18.01740234 104.56723633 -18.01740234 104.56723633 -18.03515625 106.35742188 C-18.05868794 109.24005377 -18.04573454 112.11777122 -18 115 C-17.10796875 114.62746094 -16.2159375 114.25492187 -15.296875 113.87109375 C-14.12640625 113.39800781 -12.9559375 112.92492187 -11.75 112.4375 C-10.58984375 111.96183594 -9.4296875 111.48617187 -8.234375 110.99609375 C-3.96629213 109.68164794 -3.96629213 109.68164794 -1 111 C1.10988152 112.13966398 3.19175521 113.33202757 5.25 114.5625 C6.32765625 115.20316406 7.4053125 115.84382813 8.515625 116.50390625 C9.74539063 117.24447266 9.74539063 117.24447266 11 118 C5.82195444 111.08117227 5.82195444 111.08117227 -1 106 C-5.20275774 106 -8.97745104 106.82675655 -13 108 C-14.06009615 95.86778846 -14.06009615 95.86778846 -11.6875 91.6875 C-9.89214681 89.89214681 -8.08780062 88.44292012 -6 87 C-5.33226562 86.49726563 -4.66453125 85.99453125 -3.9765625 85.4765625 C-2.34899867 84.2741582 -0.67840413 83.1303538 1 82 C-3.21247113 91.12702079 -3.21247113 91.12702079 -7.6875 93.3125 C-8.450625 93.539375 -9.21375 93.76625 -10 94 C-11.20561184 94.98267859 -11.20561184 94.98267859 -11.09765625 96.84765625 C-11.08605469 97.57855469 -11.07445312 98.30945313 -11.0625 99.0625 C-11.041875 100.361875 -11.02125 101.66125 -11 103 C-0.53685226 103.84618525 6.2536171 103.32926337 15.328125 97.62890625 C17.71310941 96.1749026 19.33139186 95.57971495 22 95 C22.07674667 87.15704699 22.1288892 79.3141926 22.16479492 71.47094727 C22.17807017 68.80865573 22.2001744 66.14686363 22.22631836 63.48461914 C22.97557827 33.37031224 22.97557827 33.37031224 8.84765625 7.79296875 C6.12272682 5.14869262 3.14562044 3.11847907 0 1 C0 0.67 0 0.34 0 0 Z " fill="#1A2027" transform="translate(361,105)"/>
<path d="M0 0 C11.08047948 9.03877884 17.15498061 21.61129913 19.78515625 35.41015625 C20.15765939 39.60579805 20.1671005 43.76175341 20.12573242 47.97167969 C20.12638954 49.75921158 20.12638954 49.75921158 20.12705994 51.58285522 C20.12498832 55.47858704 20.10173399 59.37387564 20.078125 63.26953125 C20.07084382 65.98764809 20.06810811 68.70576453 20.06526184 71.42388916 C20.0559863 77.8196881 20.03143434 84.21533079 20.00121337 90.61106133 C19.96752831 97.90017515 19.95114812 105.18929694 19.93612707 112.47846937 C19.90488 127.45578496 19.8522083 142.43295488 19.78515625 157.41015625 C16.68376847 156.20533817 14.07174803 155.09050129 11.453125 153.02734375 C10.88271484 152.58261719 10.31230469 152.13789063 9.72460938 151.6796875 C9.14646484 151.21949219 8.56832031 150.75929688 7.97265625 150.28515625 C7.37517578 149.81722656 6.77769531 149.34929687 6.16210938 148.8671875 C4.69898833 147.7201006 3.24149328 146.56584391 1.78515625 145.41015625 C-2.25205936 146.97599221 -4.68554957 149.8518949 -7.46484375 153.03515625 C-7.92375 153.55078125 -8.38265625 154.06640625 -8.85546875 154.59765625 C-9.98076671 155.86361645 -11.09856552 157.13623567 -12.21484375 158.41015625 C-17.13420277 154.29395789 -21.74132331 150.00605263 -26.21484375 145.41015625 C-29.94381836 146.9287432 -31.9787095 149.13673765 -34.58984375 152.16015625 C-38.01078733 156.06172827 -41.49938091 159.78996168 -45.21484375 163.41015625 C-47.98279043 162.12650356 -50.19782049 160.73704421 -52.4921875 158.73046875 C-53.38647461 157.95509766 -53.38647461 157.95509766 -54.29882812 157.1640625 C-54.91048828 156.62652344 -55.52214844 156.08898437 -56.15234375 155.53515625 C-57.36912985 154.47450071 -58.5865661 153.41459049 -59.8046875 152.35546875 C-60.6706958 151.60185059 -60.6706958 151.60185059 -61.55419922 150.83300781 C-63.73009939 148.9686817 -65.96180332 147.18009693 -68.21484375 145.41015625 C-72.87489293 146.9314481 -76.14964042 149.50069398 -79.90234375 152.53515625 C-85.95244706 157.41015625 -85.95244706 157.41015625 -88.21484375 157.41015625 C-88.21484375 147.18015625 -88.21484375 136.95015625 -88.21484375 126.41015625 C-86.23484375 126.41015625 -84.25484375 126.41015625 -82.21484375 126.41015625 C-82.21484375 132.68015625 -82.21484375 138.95015625 -82.21484375 145.41015625 C-78.47449342 142.37793672 -78.47449342 142.37793672 -74.7668457 139.30615234 C-73.328125 138.18359375 -73.328125 138.18359375 -70.21484375 136.41015625 C-65.6046408 137.13583634 -62.64600664 140.5124194 -59.40234375 143.66015625 C-54.88305172 147.93389541 -50.29243506 151.79725474 -45.21484375 155.41015625 C-44.98410156 154.85070312 -44.75335938 154.29125 -44.515625 153.71484375 C-42.87261065 150.8037973 -40.80905972 148.85166548 -38.40234375 146.53515625 C-34.75949145 142.97138179 -31.37060797 139.40745759 -28.21484375 135.41015625 C-23.29548473 139.52635461 -18.68836419 143.81425987 -14.21484375 148.41015625 C-10.82130069 146.98129601 -9.01742314 145.25698168 -6.71484375 142.41015625 C-4.41226436 139.56333082 -2.60838681 137.83901649 0.78515625 136.41015625 C1.55601562 136.97605469 2.326875 137.54195312 3.12109375 138.125 C4.12398438 138.85847656 5.126875 139.59195313 6.16015625 140.34765625 C7.15789062 141.07855469 8.155625 141.80945313 9.18359375 142.5625 C11.61332734 144.38811315 11.61332734 144.38811315 13.78515625 145.41015625 C13.77128468 131.32682277 13.72842015 117.24382572 13.65306568 103.16068172 C13.6188967 96.62001472 13.59370136 90.07957881 13.58959961 83.53881836 C13.58529509 77.21676303 13.55665368 70.89522813 13.51172447 64.57333565 C13.4988182 62.17147424 13.49441716 59.76955033 13.49900246 57.36765862 C13.52582337 39.03824333 12.66836236 23.72183501 -0.21484375 9.41015625 C-1.20484375 8.75015625 -2.19484375 8.09015625 -3.21484375 7.41015625 C-3.21484375 6.75015625 -3.21484375 6.09015625 -3.21484375 5.41015625 C-3.75496094 5.14203125 -4.29507813 4.87390625 -4.8515625 4.59765625 C-6.56867722 3.73484158 -8.27874108 2.85795002 -9.984375 1.97265625 C-11.49064453 1.19921875 -11.49064453 1.19921875 -13.02734375 0.41015625 C-14.02378906 -0.10546875 -15.02023437 -0.62109375 -16.046875 -1.15234375 C-26.51981055 -5.90455125 -39.1898342 -6.42305554 -50.05859375 -2.4921875 C-50.77015625 -2.19441406 -51.48171875 -1.89664063 -52.21484375 -1.58984375 C-53.2203125 -1.18958984 -53.2203125 -1.18958984 -54.24609375 -0.78125 C-66.08671853 4.50474321 -74.15677489 13.57206568 -79.07788086 25.50244141 C-81.75244501 33.18311802 -81.76947276 40.99598342 -81.90234375 49.03515625 C-81.93559437 50.4349262 -81.97009088 51.83466713 -82.00585938 53.234375 C-82.08773152 56.62622111 -82.15708163 60.01782836 -82.21484375 63.41015625 C-84.68284422 62.2584227 -86.2626794 61.3623206 -88.21484375 59.41015625 C-90.37114477 40.8605314 -88.8339924 23.46692285 -77.21484375 8.41015625 C-56.81095005 -15.20166224 -25.2315858 -18.11156159 0 0 Z " fill="#5EE341" transform="translate(384.21484375,106.58984375)"/>
<path d="M0 0 C8.58 0 17.16 0 26 0 C26.4375 8.9375 26.4375 8.9375 26.56811523 11.75756836 C26.6252771 12.85016968 26.6252771 12.85016968 26.68359375 13.96484375 C26.72025146 14.7137085 26.75690918 15.46257324 26.79467773 16.23413086 C26.81771063 18.02461326 26.81771063 18.02461326 28 19 C29.34015221 19.15582303 30.68758903 19.25044142 32.03515625 19.31640625 C32.84404297 19.35830078 33.65292969 19.40019531 34.48632812 19.44335938 C35.33646484 19.48267578 36.18660156 19.52199219 37.0625 19.5625 C37.91650391 19.60568359 38.77050781 19.64886719 39.65039062 19.69335938 C41.76672037 19.79976702 43.88333813 19.90041731 46 20 C46.04935509 25.37514905 46.08569802 30.75016685 46.10986328 36.12548828 C46.11993484 37.95493873 46.13359276 39.78437303 46.15087891 41.61376953 C46.17507677 44.23994934 46.18647132 46.86591675 46.1953125 49.4921875 C46.20563507 50.31306854 46.21595764 51.13394958 46.22659302 51.97970581 C46.22699184 53.98789142 46.1224954 55.99555382 46 58 C43.61153173 60.38846827 43.10779425 60.2519244 39.85742188 60.25878906 C39.00313599 60.26509338 38.1488501 60.27139771 37.26867676 60.27789307 C36.34470093 60.2738446 35.4207251 60.26979614 34.46875 60.265625 C33.52189331 60.26753845 32.57503662 60.2694519 31.5994873 60.27142334 C29.59545628 60.27278573 27.59141646 60.26908556 25.58740234 60.26074219 C22.51249447 60.25004347 19.43817086 60.26063572 16.36328125 60.2734375 C14.41926954 60.27211591 12.47525819 60.26955354 10.53125 60.265625 C9.14528625 60.27169769 9.14528625 60.27169769 7.73132324 60.27789307 C6.87703735 60.27158875 6.02275146 60.26528442 5.14257812 60.25878906 C4.38916138 60.25719788 3.63574463 60.25560669 2.85949707 60.25396729 C1 60 1 60 -1 58 C-1.24723816 55.64697266 -1.24723816 55.64697266 -1.24291992 52.6640625 C-1.24599655 51.54950684 -1.24907318 50.43495117 -1.25224304 49.28662109 C-1.24505753 48.07828613 -1.23787201 46.86995117 -1.23046875 45.625 C-1.23001053 44.38959473 -1.22955231 43.15418945 -1.2290802 41.88134766 C-1.22527837 38.59407771 -1.21225908 35.30699988 -1.19561768 32.01977539 C-1.18217325 28.67463934 -1.1853418 25.32953715 -1.18554688 21.984375 C-1.18063102 19.44791466 -1.17480241 16.9114559 -1.16796875 14.375 C-1.16685593 13.16666504 -1.1657431 11.95833008 -1.16459656 10.71337891 C-1.15821671 9.59882324 -1.15183685 8.48426758 -1.14526367 7.3359375 C-1.14145187 6.35157715 -1.13764008 5.3672168 -1.13371277 4.35302734 C-1 2 -1 2 0 0 Z " fill="#54FB2E" transform="translate(256,166)"/>
<path d="M0 0 C5.94 0 11.88 0 18 0 C20.13858067 4.27716133 20.37984542 7.10039531 20.65625 11.7578125 C20.80410474 14.19862867 20.80410474 14.19862867 23 16 C24.98821313 16.39764263 26.98944339 16.73775349 29 17 C29 17.33 29 17.66 29 18 C27.02 18.33 25.04 18.66 23 19 C23 19.99 23 20.98 23 22 C24.32 22 25.64 22 27 22 C27.6875 24.25 27.6875 24.25 28 27 C26.5625 29.3125 26.5625 29.3125 25 31 C27.64 31 30.28 31 33 31 C33.33 29.68 33.66 28.36 34 27 C34 27.66 34 28.32 34 29 C34.66 29 35.32 29 36 29 C36 31.97 36 34.94 36 38 C35.34 38 34.68 38 34 38 C34.33 38.99 34.66 39.98 35 41 C34.505 41.99 34.505 41.99 34 43 C30.04 42.67 26.08 42.34 22 42 C22 39.36 22 36.72 22 34 C20.515 34.495 20.515 34.495 19 35 C18.67 37.31 18.34 39.62 18 42 C13.00778927 42.99844215 9.6662887 43.17036684 5 41 C4.34 40.01 3.68 39.02 3 38 C0.94074861 37.27617533 0.94074861 37.27617533 -1 37 C-1.0246826 32.05208706 -1.04285166 27.1042098 -1.05493164 22.15625 C-1.05996653 20.47232438 -1.06679481 18.78840314 -1.07543945 17.10449219 C-1.08754196 14.68683797 -1.09323668 12.26924144 -1.09765625 9.8515625 C-1.10281754 9.0963028 -1.10797882 8.34104309 -1.11329651 7.56289673 C-1.11387171 2.22774341 -1.11387171 2.22774341 0 0 Z M19 18 C19.33 18.66 19.66 19.32 20 20 C20.66 19.67 21.32 19.34 22 19 C21.01 18.67 20.02 18.34 19 18 Z " fill="#4FFD2B" transform="translate(261,172)"/>
<path d="M0 0 C0.495 1.485 0.495 1.485 1 3 C-1.31 3.99 -3.62 4.98 -6 6 C-4.52168779 6.19412181 -3.04230684 6.38012131 -1.5625 6.5625 C-0.73878906 6.66691406 0.08492188 6.77132812 0.93359375 6.87890625 C1.61550781 6.91886719 2.29742187 6.95882812 3 7 C3.33 6.67 3.66 6.34 4 6 C5.66617115 5.95936168 7.33388095 5.957279 9 6 C9 5.34 9 4.68 9 4 C21.97596623 1.33826334 35.92076223 -0.16883988 48.1328125 6.09375 C50.50973291 7.24740175 52.39286994 7.14484056 55 7 C55 7.99 55 8.98 55 10 C55.99 10 56.98 10 58 10 C58.495 10.99 58.495 10.99 59 12 C59.7425 12.226875 60.485 12.45375 61.25 12.6875 C64.67751547 14.32335965 65.82772935 16.27563026 67.7890625 19.44140625 C69.01128536 21.31216923 69.01128536 21.31216923 72 22 C73.4477922 24.89558441 74 26.74188938 74 30 C74.66 30 75.32 30 76 30 C76.99 32.31 77.98 34.62 79 37 C79.66 37 80.32 37 81 37 C81.86932635 44.92964248 82.13890957 52.75008869 82.11352539 60.72338867 C82.11367142 61.94419128 82.11381744 63.1649939 82.1139679 64.42279053 C82.11339517 67.73404216 82.10841854 71.04522958 82.10139394 74.35646987 C82.0950953 77.83044348 82.09455149 81.30441817 82.09336853 84.77839661 C82.09027426 91.34061711 82.08208681 97.90282073 82.07201904 104.46503383 C82.06079842 111.94277428 82.05533253 119.42051559 82.05032361 126.89826238 C82.03990238 142.26551799 82.02234022 157.63275681 82 173 C81.67 173 81.34 173 81 173 C80.99761165 172.38230618 80.99522329 171.76461235 80.99276257 171.12820053 C80.93345621 156.05243932 80.85780723 140.97685452 80.76428509 125.90127182 C80.71944549 118.61062828 80.68000406 111.32003229 80.65356445 104.02929688 C80.63048794 97.66980114 80.59698361 91.31045741 80.55129844 84.95108247 C80.52749501 81.58821313 80.5102389 78.22563016 80.50238609 74.86266327 C80.49270237 71.09539203 80.46459066 67.32866042 80.43237305 63.56152344 C80.43380814 62.46387665 80.43524323 61.36622986 80.4367218 60.23532104 C80.24520315 44.30327634 75.08978713 30.55672554 64 19 C53.52270823 10.05427247 40.62685329 4.59286986 26.8125 4.625 C26.07781494 4.62661133 25.34312988 4.62822266 24.58618164 4.62988281 C17.60053055 4.78449633 11.48556331 6.40395289 5 9 C4.2884375 9.25394531 3.576875 9.50789063 2.84375 9.76953125 C-7.76865361 14.18411718 -17.12394034 24.86651288 -22 35 C-24.86513275 42.66379066 -26.99599235 50.32609014 -27.31640625 58.51953125 C-27.35830078 59.54111328 -27.40019531 60.56269531 -27.44335938 61.61523438 C-27.50233398 63.19788086 -27.50233398 63.19788086 -27.5625 64.8125 C-27.60568359 65.88693359 -27.64886719 66.96136719 -27.69335938 68.06835938 C-27.79910983 70.71212082 -27.90120233 73.3559711 -28 76 C-28.66 76 -29.32 76 -30 76 C-30.33 68.41 -30.66 60.82 -31 53 C-33.68092691 55.68092691 -33.38670257 57.39167363 -33.625 61.125 C-33.69976562 62.22070312 -33.77453125 63.31640625 -33.8515625 64.4453125 C-33.90054687 65.28835937 -33.94953125 66.13140625 -34 67 C-34.99 66.67 -35.98 66.34 -37 66 C-36.55448801 45.30596808 -33.29962529 28.78278226 -18.8125 13.1875 C-13.2066018 7.88084904 -6.58589711 3.9627802 0 0 Z " fill="#182122" transform="translate(323,91)"/>
<path d="M0 0 C8.58 0 17.16 0 26 0 C26 1.32 26 2.64 26 4 C15.11 4.495 15.11 4.495 4 5 C3.95101563 7.00578125 3.90203125 9.0115625 3.8515625 11.078125 C3.79576559 13.10076306 3.73990921 15.12339983 3.68261719 17.14599609 C3.62715192 19.17141849 3.57905219 21.19703851 3.53125 23.22265625 C3.21050418 34.28838691 2.10984121 44.90158794 1 56 C14.53 56 28.06 56 42 56 C42 44.45 42 32.9 42 21 C42.99 21 43.98 21 45 21 C45.02464849 26.39346988 45.04283531 31.78690725 45.05493164 37.18041992 C45.05997231 39.01668875 45.06680477 40.85295354 45.07543945 42.68920898 C45.08751672 45.32276401 45.09323081 47.95626616 45.09765625 50.58984375 C45.10281754 51.41588608 45.10797882 52.24192841 45.11329651 53.09300232 C45.11349205 55.06236368 45.06204152 57.03161614 45 59 C43.4726789 60.5273211 42.09995977 60.13452391 39.97094727 60.14526367 C39.11658585 60.15164352 38.26222443 60.15802338 37.38197327 60.16459656 C36.45283615 60.16570938 35.52369904 60.1668222 34.56640625 60.16796875 C33.61813461 60.17129715 32.66986298 60.17462555 31.69285583 60.17805481 C29.68285611 60.18312819 27.67284792 60.18546301 25.6628418 60.18530273 C22.57912381 60.18748822 19.49576394 60.20563683 16.41210938 60.22460938 C14.4635429 60.22754334 12.51497471 60.22952812 10.56640625 60.23046875 C9.63929337 60.23765427 8.71218048 60.24483978 7.75697327 60.25224304 C6.89945969 60.24916641 6.04194611 60.24608978 5.15844727 60.24291992 C4.40201431 60.24434494 3.64558136 60.24576996 2.8662262 60.24723816 C1 60 1 60 -1 58 C-1.24723816 55.64697266 -1.24723816 55.64697266 -1.24291992 52.6640625 C-1.24599655 51.54950684 -1.24907318 50.43495117 -1.25224304 49.28662109 C-1.24505753 48.07828613 -1.23787201 46.86995117 -1.23046875 45.625 C-1.23001053 44.38959473 -1.22955231 43.15418945 -1.2290802 41.88134766 C-1.22527837 38.59407771 -1.21225908 35.30699988 -1.19561768 32.01977539 C-1.18217325 28.67463934 -1.1853418 25.32953715 -1.18554688 21.984375 C-1.18063102 19.44791466 -1.17480241 16.9114559 -1.16796875 14.375 C-1.16685593 13.16666504 -1.1657431 11.95833008 -1.16459656 10.71337891 C-1.15821671 9.59882324 -1.15183685 8.48426758 -1.14526367 7.3359375 C-1.14145187 6.35157715 -1.13764008 5.3672168 -1.13371277 4.35302734 C-1 2 -1 2 0 0 Z " fill="#8EDB64" transform="translate(256,166)"/>
<path d="M0 0 C0.66 0 1.32 0 2 0 C2.99172289 6.58320041 3.13597237 12.9974342 3.11352539 19.6484375 C3.11367142 20.79077347 3.11381744 21.93310944 3.1139679 23.11006165 C3.11327431 26.86506079 3.1055079 30.62000958 3.09765625 34.375 C3.0957901 36.98673475 3.09436713 39.59846985 3.09336853 42.21020508 C3.09026961 48.36878396 3.08207575 54.52734493 3.07201904 60.68591595 C3.06081305 67.70168495 3.05533618 74.71745485 3.05032361 81.73323059 C3.03989183 96.15549627 3.02232044 110.57774788 3 125 C1.515 125.495 1.515 125.495 0 126 C-3.6129609 124.02929405 -4.75237172 121.84685385 -6 118 C-3.03 117.505 -3.03 117.505 0 117 C0 78.39 0 39.78 0 0 Z " fill="#54F82D" transform="translate(399,136)"/>
<path d="M0 0 C0.66 0.33 1.32 0.66 2 1 C1.20078125 1.66644531 0.4015625 2.33289063 -0.421875 3.01953125 C-2.73502286 4.95294561 -5.02728266 6.90868617 -7.3125 8.875 C-9.658081 10.88833169 -12.04146503 12.8143305 -14.5 14.6875 C-20.74402705 19.62330025 -20.74402705 19.62330025 -23.96875 26.8046875 C-24.21920014 30.26229079 -24.26219554 33.54607799 -24 37 C-23.09507812 36.65775391 -23.09507812 36.65775391 -22.171875 36.30859375 C-21.37265625 36.02113281 -20.5734375 35.73367187 -19.75 35.4375 C-18.96109375 35.14746094 -18.1721875 34.85742188 -17.359375 34.55859375 C-14.69506987 33.92780628 -13.56158265 34.12097782 -11 35 C-9.35253906 36.21508789 -9.35253906 36.21508789 -7.765625 37.72265625 C-7.19199219 38.26083984 -6.61835938 38.79902344 -6.02734375 39.35351562 C-5.44082031 39.91748047 -4.85429687 40.48144531 -4.25 41.0625 C-3.64800781 41.63033203 -3.04601562 42.19816406 -2.42578125 42.78320312 C-0.94436788 44.18231575 0.5286488 45.59030947 2 47 C1.01 47.495 1.01 47.495 0 48 C-2.0022227 46.95510827 -3.95430001 45.81311026 -5.875 44.625 C-10.62271126 41.46490908 -10.62271126 41.46490908 -16 40 C-18.52961097 40.74258263 -18.52961097 40.74258263 -21.0625 41.9375 C-25.71186441 44 -25.71186441 44 -29 44 C-30.24954017 35.77706449 -31.41181515 27.08522431 -29 19 C-24.60835357 13.29074168 -18.00845502 10.31644143 -11.61767578 7.31103516 C-7.49690709 5.24719186 -3.76140213 2.65074511 0 0 Z " fill="#62EC44" transform="translate(372,176)"/>
<path d="M0 0 C2.37692041 1.15365175 4.26005744 1.05109056 6.8671875 0.90625 C6.8671875 1.89625 6.8671875 2.88625 6.8671875 3.90625 C7.8571875 3.90625 8.8471875 3.90625 9.8671875 3.90625 C10.3621875 4.89625 10.3621875 4.89625 10.8671875 5.90625 C11.6096875 6.133125 12.3521875 6.36 13.1171875 6.59375 C16.54470297 8.22960965 17.69491685 10.18188026 19.65625 13.34765625 C20.87847286 15.21841923 20.87847286 15.21841923 23.8671875 15.90625 C25.3149797 18.80183441 25.8671875 20.64813938 25.8671875 23.90625 C26.5271875 23.90625 27.1871875 23.90625 27.8671875 23.90625 C28.8571875 26.21625 29.8471875 28.52625 30.8671875 30.90625 C31.5271875 30.90625 32.1871875 30.90625 32.8671875 30.90625 C33.73651385 38.83589248 34.00609707 46.65633869 33.98071289 54.62963867 C33.98085892 55.85044128 33.98100494 57.0712439 33.9811554 58.32904053 C33.98058267 61.64029216 33.97560604 64.95147958 33.96858144 68.26271987 C33.9622828 71.73669348 33.96173899 75.21066817 33.96055603 78.68464661 C33.95746176 85.24686711 33.94927431 91.80907073 33.93920654 98.37128383 C33.92798592 105.84902428 33.92252003 113.32676559 33.91751111 120.80451238 C33.90708988 136.17176799 33.88952772 151.53900681 33.8671875 166.90625 C33.5371875 166.90625 33.2071875 166.90625 32.8671875 166.90625 C32.86479915 166.28855618 32.86241079 165.67086235 32.85995007 165.03445053 C32.80064371 149.95868932 32.72499473 134.88310452 32.63147259 119.80752182 C32.58663299 112.51687828 32.54719156 105.22628229 32.52075195 97.93554688 C32.49767544 91.57605114 32.46417111 85.21670741 32.41848594 78.85733247 C32.39468251 75.49446313 32.3774264 72.13188016 32.36957359 68.76891327 C32.35988987 65.00164203 32.33177816 61.23491042 32.29956055 57.46777344 C32.30099564 56.37012665 32.30243073 55.27247986 32.3039093 54.14157104 C32.11239065 38.20952634 26.95697463 24.46297554 15.8671875 12.90625 C5.38733372 3.95833498 -7.50427919 -1.49607665 -21.3203125 -1.46875 C-22.05209717 -1.46931396 -22.78388184 -1.46987793 -23.5378418 -1.47045898 C-30.52233172 -1.33136206 -36.60217467 0.49717027 -43.1328125 2.90625 C-44.46066569 3.2607846 -45.79215295 3.60372587 -47.1328125 3.90625 C-47.1328125 3.24625 -47.1328125 2.58625 -47.1328125 1.90625 C-43.90489695 -0.2456937 -42.84880441 -0.29461443 -39.1328125 -0.09375 C-39.1328125 -0.75375 -39.1328125 -1.41375 -39.1328125 -2.09375 C-26.15684627 -4.75548666 -12.21205027 -6.26258988 0 0 Z " fill="#0D360F" transform="translate(371.1328125,97.09375)"/>
<path d="M0 0 C0.33 0.66 0.66 1.32 1 2 C1.66 2 2.32 2 3 2 C3 4.97 3 7.94 3 11 C2.34 11 1.68 11 1 11 C1.33 11.99 1.66 12.98 2 14 C1.67 14.66 1.34 15.32 1 16 C-2.96 15.67 -6.92 15.34 -11 15 C-11 12.36 -11 9.72 -11 7 C-11.99 7.33 -12.98 7.66 -14 8 C-14.33 10.31 -14.66 12.62 -15 15 C-20.02440639 16.00488128 -23.26461611 16.02945024 -28 14 C-28.33 13.67 -28.66 13.34 -29 13 C-28.91062197 11.47480724 -28.75462854 9.95318071 -28.5625 8.4375 C-28.46066406 7.61121094 -28.35882813 6.78492188 -28.25390625 5.93359375 C-28.17011719 5.29550781 -28.08632813 4.65742188 -28 4 C-27.03578125 3.95101562 -26.0715625 3.90203125 -25.078125 3.8515625 C-23.81484375 3.77679688 -22.5515625 3.70203125 -21.25 3.625 C-19.99703125 3.55539063 -18.7440625 3.48578125 -17.453125 3.4140625 C-14.39001879 3.04676696 -12.58025734 2.60288714 -10 1 C-10 1.99 -10 2.98 -10 4 C-6.7 4 -3.4 4 0 4 C0 2.68 0 1.36 0 0 Z " fill="#59D443" transform="translate(294,199)"/>
<path d="M0 0 C0.91644287 0.00523682 1.83288574 0.01047363 2.77709961 0.01586914 C3.76645508 0.0190918 4.75581055 0.02231445 5.77514648 0.02563477 C6.81606445 0.03401367 7.85698242 0.04239258 8.92944336 0.05102539 C10.49662109 0.05779297 10.49662109 0.05779297 12.09545898 0.06469727 C14.68600996 0.07652627 17.27644895 0.0930085 19.86694336 0.11352539 C19.9275293 1.11254883 19.98811523 2.11157227 20.05053711 3.14086914 C20.1762207 5.07639648 20.1762207 5.07639648 20.30444336 7.05102539 C20.3856543 8.33879883 20.46686523 9.62657227 20.55053711 10.95336914 C20.51613524 13.97376496 20.51613524 13.97376496 21.86694336 15.11352539 C27.80694336 15.44352539 33.74694336 15.77352539 39.86694336 16.11352539 C39.86694336 28.65352539 39.86694336 41.19352539 39.86694336 54.11352539 C39.53694336 54.11352539 39.20694336 54.11352539 38.86694336 54.11352539 C38.86694336 41.90352539 38.86694336 29.69352539 38.86694336 17.11352539 C37.54694336 17.44352539 36.22694336 17.77352539 34.86694336 18.11352539 C32.4940445 18.23134831 30.11773323 18.28862565 27.74194336 18.30102539 C26.50186523 18.31520508 25.26178711 18.32938477 23.98413086 18.34399414 C20.86694336 18.11352539 20.86694336 18.11352539 18.86694336 16.11352539 C18.48803711 13.87133789 18.48803711 13.87133789 18.30444336 11.23852539 C18.06701278 7.99202568 17.66576662 5.30881842 16.86694336 2.11352539 C10.92694336 2.11352539 4.98694336 2.11352539 -1.13305664 2.11352539 C-1.13305664 14.32352539 -1.13305664 26.53352539 -1.13305664 39.11352539 C-0.14305664 39.44352539 0.84694336 39.77352539 1.86694336 40.11352539 C1.86694336 38.46352539 1.86694336 36.81352539 1.86694336 35.11352539 C2.19694336 35.11352539 2.52694336 35.11352539 2.86694336 35.11352539 C3.19694336 37.75352539 3.52694336 40.39352539 3.86694336 43.11352539 C2.21694336 42.78352539 0.56694336 42.45352539 -1.13305664 42.11352539 C-1.79305664 45.08352539 -2.45305664 48.05352539 -3.13305664 51.11352539 C9.73694336 50.78352539 22.60694336 50.45352539 35.86694336 50.11352539 C35.86694336 50.77352539 35.86694336 51.43352539 35.86694336 52.11352539 C32.65898036 53.71750689 29.17094058 53.25533317 25.64819336 53.24633789 C24.83451294 53.24729462 24.02083252 53.24825134 23.18249512 53.24923706 C21.46093671 53.24991802 19.73937575 53.24806956 18.01782227 53.24389648 C15.37762707 53.23854704 12.73760199 53.24384428 10.09741211 53.25024414 C8.42683882 53.24958334 6.75626563 53.24830215 5.08569336 53.24633789 C4.29296021 53.24836212 3.50022705 53.25038635 2.68347168 53.25247192 C-2.90313637 53.22848553 -2.90313637 53.22848553 -5.13305664 52.11352539 C-5.16028181 49.90526161 -5.17955393 47.69689901 -5.19555664 45.48852539 C-5.2071582 44.25875977 -5.21875977 43.02899414 -5.23071289 41.76196289 C-5.13305664 38.11352539 -5.13305664 38.11352539 -4.64453125 35.34375 C-4.08250805 31.79428509 -3.93810878 28.37382068 -3.85180664 24.78149414 C-3.81405701 23.39282197 -3.77629628 22.00415011 -3.73852539 20.61547852 C-3.68465305 18.4450163 -3.63242635 16.2745209 -3.58081055 14.10400391 C-3.52926082 11.99637676 -3.47200351 9.88896051 -3.41430664 7.78149414 C-3.38401367 6.52618896 -3.3537207 5.27088379 -3.32250977 3.97753906 C-3.07020646 0.16340231 -3.07020646 0.16340231 0 0 Z " fill="#71F446" transform="translate(262.133056640625,169.886474609375)"/>
<path d="M0 0 C0.65484375 0.52335937 1.3096875 1.04671875 1.984375 1.5859375 C1.984375 2.2459375 1.984375 2.9059375 1.984375 3.5859375 C2.5825 3.84117188 3.180625 4.09640625 3.796875 4.359375 C11.85875569 8.87978667 15.89999289 20.40884247 18.3573246 28.81238937 C19.41284089 33.48111335 19.37675219 38.05155748 19.32495117 42.81884766 C19.32560829 44.4303772 19.32560829 44.4303772 19.32627869 46.07446289 C19.32420476 49.59149972 19.30093949 53.10804743 19.27734375 56.625 C19.27174284 59.07693217 19.26747508 61.52886771 19.26448059 63.98080444 C19.25307087 70.4087667 19.22363698 76.83652297 19.19036865 83.2644043 C19.15958417 89.83379328 19.14595738 96.4032158 19.13085938 102.97265625 C19.09876361 115.84383746 19.04819754 128.71487648 18.984375 141.5859375 C18.654375 141.5859375 18.324375 141.5859375 17.984375 141.5859375 C17.97628815 140.30157806 17.96820129 139.01721863 17.95986938 137.69393921 C17.88211527 125.54267894 17.79430399 113.39152662 17.69684792 101.24040794 C17.64707223 94.9946041 17.60074158 88.74881565 17.5625 82.50292969 C17.52540935 76.46631246 17.47898722 70.42983025 17.42631149 64.39332962 C17.40789312 62.09948743 17.39273976 59.80561644 17.38103104 57.51173019 C17.31868894 45.71185629 17.21289581 34.21447776 14.984375 22.5859375 C14.324375 22.5859375 13.664375 22.5859375 12.984375 22.5859375 C12.736875 21.9053125 12.489375 21.2246875 12.234375 20.5234375 C11.2278742 18.15816061 10.1584487 16.10041348 8.859375 13.8984375 C6.984375 10.5859375 6.984375 10.5859375 6.984375 8.5859375 C5.994375 8.2559375 5.004375 7.9259375 3.984375 7.5859375 C3.984375 6.9259375 3.984375 6.2659375 3.984375 5.5859375 C3.38625 5.4828125 2.788125 5.3796875 2.171875 5.2734375 C-0.015625 4.5859375 -0.015625 4.5859375 -1.421875 3.16796875 C-5.98669806 -1.36328943 -13.10843748 -3.23773026 -19.015625 -5.4140625 C-19.510625 -5.9090625 -19.510625 -5.9090625 -20.015625 -6.4140625 C-29.9705568 -7.18664627 -38.5896782 -6.16512166 -48.1015625 -3.19140625 C-51.015625 -2.4140625 -51.015625 -2.4140625 -53.015625 -3.4140625 C-34.80131108 -13.17173067 -17.11007208 -11.06837996 0 0 Z " fill="#2D6F26" transform="translate(379.015625,110.4140625)"/>
<path d="M0 0 C3.25877878 2.61633382 3.98900655 5.49730226 5.125 9.4375 C5.45757812 10.57058594 5.79015625 11.70367187 6.1328125 12.87109375 C6.41898437 13.90363281 6.70515625 14.93617188 7 16 C7.18040549 16.61908611 7.36081099 17.23817223 7.54668331 17.87601852 C8.07284468 20.34130832 8.12284863 22.59112962 8.12025452 25.11260986 C8.12162918 26.14463531 8.12300385 27.17666077 8.12442017 28.23995972 C8.12082489 29.36636871 8.11722961 30.49277771 8.11352539 31.65332031 C8.11367142 32.84384003 8.11381744 34.03435974 8.1139679 35.26095581 C8.11339086 38.52096274 8.10837765 41.78092667 8.10139394 45.04092503 C8.09514008 48.449543 8.09455499 51.85816184 8.09336853 55.26678467 C8.09026121 61.71944884 8.08205589 68.17209605 8.07201904 74.62475276 C8.06083931 81.97174087 8.05534276 89.31872978 8.05032361 96.66572428 C8.03987279 111.77715896 8.02228493 126.88857779 8 142 C6.68 141.34 5.36 140.68 4 140 C4.495 139.01 4.495 139.01 5 138 C5.09296045 136.32744961 5.12191966 134.65117464 5.12025452 132.9760437 C5.12162918 131.91311096 5.12300385 130.85017822 5.12442017 129.7550354 C5.12082489 128.5840329 5.11722961 127.4130304 5.11352539 126.20654297 C5.11367142 124.97730103 5.11381744 123.74805908 5.1139679 122.48156738 C5.11338954 119.10573658 5.10836537 115.72996652 5.10139394 112.35414648 C5.09515358 108.82806927 5.09455606 105.3019913 5.09336853 101.77590942 C5.09025723 95.09651676 5.08204655 88.41714041 5.07201904 81.73775494 C5.06085166 74.13446975 5.05534588 66.53118379 5.05032361 58.92789245 C5.03986378 43.28525217 5.02226822 27.64262819 5 12 C4.34 12 3.68 12 3 12 C-0.42857143 4.71428571 -0.42857143 4.71428571 0 0 Z " fill="#57CC3F" transform="translate(396,122)"/>
<path d="M0 0 C0.99 0 1.98 0 3 0 C3 2.64 3 5.28 3 8 C4.3303125 7.938125 4.3303125 7.938125 5.6875 7.875 C8.97277013 7.99897246 11.05449295 8.61387904 14 10 C13.67 10.99 13.34 11.98 13 13 C9.52217417 14.15927528 6.81196743 14.11313066 3.14453125 14.09765625 C2.15207649 14.09553383 2.15207649 14.09553383 1.13957214 14.09336853 C-0.96949828 14.08777996 -3.07846177 14.07522965 -5.1875 14.0625 C-6.61913909 14.05748352 -8.05077985 14.05292087 -9.48242188 14.04882812 C-12.98831588 14.0378143 -16.4941475 14.02055755 -20 14 C-20 11.36 -20 8.72 -20 6 C-15.91631827 6 -12.4938491 6.6814308 -8.53515625 7.5625 C-5.97117958 8.00497363 -3.59625805 8.0743115 -1 8 C-1.0309375 6.2984375 -1.0309375 6.2984375 -1.0625 4.5625 C-1 1 -1 1 0 0 Z " fill="#54ED36" transform="translate(280,206)"/>
<path d="M0 0 C0.99 0 1.98 0 3 0 C3.49077962 6.38013511 3.49077962 6.38013511 1.5 8.89453125 C-1.88450059 11.74491534 -5.5139528 14.07566842 -9.25 16.4375 C-9.97574219 16.90220703 -10.70148438 17.36691406 -11.44921875 17.84570312 C-12.17238281 18.30783203 -12.89554687 18.76996094 -13.640625 19.24609375 C-14.35798828 19.71619873 -15.07535156 20.18630371 -15.81445312 20.6706543 C-18 22 -18 22 -20.29492188 23.01098633 C-22.67574263 24.13741613 -24.23833864 25.0313965 -26 27 C-27.12512469 31.2749395 -27.07393907 35.41312524 -27 39.8125 C-27.01160156 40.98232422 -27.02320313 42.15214844 -27.03515625 43.35742188 C-27.05868794 46.24005377 -27.04573454 49.11777122 -27 52 C-27.66 52 -28.32 52 -29 52 C-30.80117906 28.51917483 -30.80117906 28.51917483 -26.7265625 22.8203125 C-23.83773411 21.07772165 -21.20983867 20.0093015 -18 19 C-14.58428738 17.20200006 -13.17394829 16.26092244 -11 13 C-10.01 13 -9.02 13 -8 13 C-8.66 10.69 -9.32 8.38 -10 6 C-8.906875 5.566875 -7.81375 5.13375 -6.6875 4.6875 C-3.84239149 3.48534148 -2.13551531 2.24229108 0 0 Z " fill="#192626" transform="translate(370,168)"/>
<path d="M0 0 C0.99 0 1.98 0 3 0 C3.29368746 4.40531196 2.85908024 7.75074989 1.53125 11.96875 C-0.22956751 18.2209281 -0.54889981 24.22081116 -0.6875 30.6875 C-0.72166016 31.78255859 -0.75582031 32.87761719 -0.79101562 34.00585938 C-0.87246661 36.67047023 -0.94194221 39.33479462 -1 42 C-1.66 41.67 -2.32 41.34 -3 41 C-3 40.34 -3 39.68 -3 39 C-3.66 39 -4.32 39 -5 39 C-5.02945031 35.68751922 -5.04694801 32.37507289 -5.0625 29.0625 C-5.07087891 28.13630859 -5.07925781 27.21011719 -5.08789062 26.25585938 C-5.14334067 10.45259556 -5.14334067 10.45259556 -1.9375 3.9375 C-1.57527344 3.18339844 -1.21304687 2.42929688 -0.83984375 1.65234375 C-0.42412109 0.83443359 -0.42412109 0.83443359 0 0 Z " fill="#57F535" transform="translate(302,126)"/>
<path d="M0 0 C8.58 0 17.16 0 26 0 C26 1.32 26 2.64 26 4 C18.08 4.33 10.16 4.66 2 5 C2 14.57 2 24.14 2 34 C1.34 34 0.68 34 0 34 C0 22.78 0 11.56 0 0 Z " fill="#B3F77F" transform="translate(256,166)"/>
<path d="M0 0 C4 2 4 2 7 5 C4.03 4.67 1.06 4.34 -2 4 C-2 4.99 -2 5.98 -2 7 C-3.57421875 8.68359375 -3.57421875 8.68359375 -5.6875 10.4375 C-6.41324219 11.0459375 -7.13898438 11.654375 -7.88671875 12.28125 C-12.92432432 16.37837838 -12.92432432 16.37837838 -15 18 C-14.01 18.33 -13.02 18.66 -12 19 C-12.185625 19.78375 -12.37125 20.5675 -12.5625 21.375 C-13.25962266 23.97089775 -13.25962266 23.97089775 -12 26 C-16.09904506 24.42344421 -19.72218392 21.77512176 -22 18 C-22.05917923 15.52292642 -21.7221594 13.45482478 -21.13671875 11.05078125 C-21.09160156 10.37402344 -21.04648437 9.69726562 -21 9 C-22.38793701 7.44532813 -22.38793701 7.44532813 -24 6 C-24.6875 3.8125 -24.6875 3.8125 -25 2 C-24.56429688 2.37511719 -24.12859375 2.75023437 -23.6796875 3.13671875 C-23.08414062 3.64847656 -22.48859375 4.16023437 -21.875 4.6875 C-21.00488281 5.43580078 -21.00488281 5.43580078 -20.1171875 6.19921875 C-17.42838109 8.48619247 -14.71171543 10.74023714 -12 13 C-8.04 8.71 -4.08 4.42 0 0 Z " fill="#182122" transform="translate(384,251)"/>
<path d="M0 0 C0.66 0 1.32 0 2 0 C1.68806536 1.72926874 1.37542638 3.45841044 1.0625 5.1875 C0.88847656 6.15042969 0.71445312 7.11335937 0.53515625 8.10546875 C0.21187278 9.85403114 -0.13177162 11.59923521 -0.51367188 13.3359375 C-1.01685537 16.09233224 -1.20695655 18.72074602 -1.31640625 21.51953125 C-1.35830078 22.54111328 -1.40019531 23.56269531 -1.44335938 24.61523438 C-1.50233398 26.19788086 -1.50233398 26.19788086 -1.5625 27.8125 C-1.60568359 28.88693359 -1.64886719 29.96136719 -1.69335938 31.06835938 C-1.79910983 33.71212082 -1.90120233 36.3559711 -2 39 C-2.66 39 -3.32 39 -4 39 C-4.33 31.41 -4.66 23.82 -5 16 C-7.68092691 18.68092691 -7.38670257 20.39167363 -7.625 24.125 C-7.69976562 25.22070312 -7.77453125 26.31640625 -7.8515625 27.4453125 C-7.90054687 28.28835937 -7.94953125 29.13140625 -8 30 C-8.99 29.67 -9.98 29.34 -11 29 C-10.67 23.39 -10.34 17.78 -10 12 C-8.68 11.67 -7.36 11.34 -6 11 C-5.67 10.175 -5.34 9.35 -5 8.5 C-4.67 7.675 -4.34 6.85 -4 6 C-1.875 5.1875 -1.875 5.1875 0 5 C0 3.35 0 1.7 0 0 Z " fill="#15271A" transform="translate(297,128)"/>
<path d="M0 0 C0.62004175 9.98956159 0.62004175 9.98956159 -1.6875 13.75 C-4 15 -4 15 -6.5625 14.9375 C-9.18253113 13.92979572 -10.42537756 13.32049623 -12 11 C-12.34375 8.59765625 -12.34375 8.59765625 -12 6 C-10.13671875 4.19921875 -10.13671875 4.19921875 -7.6875 2.6875 C-6.88699219 2.17574219 -6.08648437 1.66398438 -5.26171875 1.13671875 C-3 0 -3 0 0 0 Z " fill="#51F530" transform="translate(357,141)"/>
<path d="M0 0 C3.29680965 0.65784963 5.84117922 1.89420573 8.75 3.5625 C9.94882812 4.24505859 9.94882812 4.24505859 11.171875 4.94140625 C11.77515625 5.29074219 12.3784375 5.64007813 13 6 C12.140625 10.7734375 12.140625 10.7734375 10.875 12.8125 C7.89865546 14.69751821 5.41997675 14.37308837 2 14 C-0.28062828 10.57905758 -0.21925007 9.31812778 -0.125 5.3125 C-0.10695313 4.31863281 -0.08890625 3.32476562 -0.0703125 2.30078125 C-0.04710937 1.54152344 -0.02390625 0.78226563 0 0 Z " fill="#52F92D" transform="translate(316,141)"/>
<path d="M0 0 C0.99 0 1.98 0 3 0 C3 12.54 3 25.08 3 38 C0.03 38 -2.94 38 -6 38 C-6 37.67 -6 37.34 -6 37 C-3.525 36.505 -3.525 36.505 -1 36 C-0.67 24.12 -0.34 12.24 0 0 Z " fill="#9FF96E" transform="translate(298,187)"/>
<path d="M0 0 C0.33 0 0.66 0 1 0 C1.33 20.13 1.66 40.26 2 61 C1.01 60.34 0.02 59.68 -1 59 C-1.36749268 56.5643158 -1.36749268 56.5643158 -1.35644531 53.46459961 C-1.35944641 52.30677475 -1.36244751 51.14894989 -1.36553955 49.95603943 C-1.35319275 48.70081985 -1.34084595 47.44560028 -1.328125 46.15234375 C-1.32625183 44.87017471 -1.32437866 43.58800568 -1.32244873 42.26698303 C-1.3178439 39.55245387 -1.30341045 36.83822108 -1.28125 34.1237793 C-1.25293915 30.63757306 -1.242036 27.15160015 -1.2375679 23.66528988 C-1.23242161 20.34843824 -1.21788144 17.03166748 -1.203125 13.71484375 C-1.19887512 12.45759995 -1.19462524 11.20035614 -1.19024658 9.90501404 C-1.18063904 8.75034134 -1.17103149 7.59566864 -1.16113281 6.40600586 C-1.15430481 5.38389511 -1.14747681 4.36178436 -1.14044189 3.30870056 C-1 1 -1 1 0 0 Z " fill="#1E4220" transform="translate(247,166)"/>
<path d="M0 0 C0.33 0 0.66 0 1 0 C1 34.65 1 69.3 1 105 C-4 102 -4 102 -5 100 C-3.68 100.33 -2.36 100.66 -1 101 C-0.67 67.67 -0.34 34.34 0 0 Z " fill="#0E360F" transform="translate(396,147)"/>
<path d="M0 0 C0.33 0 0.66 0 1 0 C1.19476139 2.60380996 1.38108614 5.20775533 1.5625 7.8125 C1.61857422 8.55048828 1.67464844 9.28847656 1.73242188 10.04882812 C1.95769724 13.36788516 2.06255812 15.81232564 1 19 C13.87 18.67 26.74 18.34 40 18 C40 18.66 40 19.32 40 20 C36.792037 21.6039815 33.30399722 21.14180778 29.78125 21.1328125 C28.96756958 21.13376923 28.15388916 21.13472595 27.31555176 21.13571167 C25.59399335 21.13639263 23.87243239 21.13454417 22.15087891 21.13037109 C19.51068371 21.12502165 16.87065864 21.13031889 14.23046875 21.13671875 C12.55989546 21.13605795 10.88932227 21.13477676 9.21875 21.1328125 C8.42601685 21.13483673 7.63328369 21.13686096 6.81652832 21.13894653 C1.22992027 21.11496014 1.22992027 21.11496014 -1 20 C-1.02722517 17.79173622 -1.04649729 15.58337362 -1.0625 13.375 C-1.07410156 12.14523438 -1.08570313 10.91546875 -1.09765625 9.6484375 C-1.00863924 6.32276209 -0.63686087 3.25952412 0 0 Z " fill="#7AFB4C" transform="translate(258,202)"/>
<path d="M0 0 C0 3 0 3 -1.375 4.4375 C-1.91125 4.953125 -2.4475 5.46875 -3 6 C-3.433125 7.0209375 -3.433125 7.0209375 -3.875 8.0625 C-5.41608502 10.71659087 -7.15765839 11.0525528 -10 12 C-11.20561184 12.98267859 -11.20561184 12.98267859 -11.09765625 14.84765625 C-11.08605469 15.57855469 -11.07445312 16.30945313 -11.0625 17.0625 C-11.041875 18.361875 -11.02125 19.66125 -11 21 C-10.16855469 20.97679687 -9.33710938 20.95359375 -8.48046875 20.9296875 C-6.85044922 20.90261719 -6.85044922 20.90261719 -5.1875 20.875 C-4.10855469 20.85179687 -3.02960938 20.82859375 -1.91796875 20.8046875 C1 21 1 21 4 23 C4 23.99 4 24.98 4 26 C4.66 26 5.32 26 6 26 C7.4375 27.49609375 7.4375 27.49609375 9 29.4375 C11.14525044 32.15188238 11.14525044 32.15188238 14 34 C13.67 34.99 13.34 35.98 13 37 C12.49210937 36.48050781 11.98421875 35.96101563 11.4609375 35.42578125 C10.0315294 33.97763559 8.58800417 32.54332812 7.1328125 31.12109375 C5 29 5 29 3.5546875 27.28515625 C2.10265454 25.57598607 2.10265454 25.57598607 -1 24 C-5.12595235 24.19622138 -9.00318436 24.98462774 -13 26 C-14.06379855 13.82541664 -14.06379855 13.82541664 -11.65234375 9.6875 C-9.8630629 7.92574655 -8.04179559 6.45900763 -6 5 C-4.84931697 4.02653713 -3.70301244 3.0478592 -2.5625 2.0625 C-1.716875 1.381875 -0.87125 0.70125 0 0 Z " fill="#1A431C" transform="translate(361,187)"/>
<path d="M0 0 C0.66 0.33 1.32 0.66 2 1 C1.20078125 1.66644531 0.4015625 2.33289063 -0.421875 3.01953125 C-8.13748768 9.48409133 -15.63501146 16.13928094 -23 23 C-23.33 21.68 -23.66 20.36 -24 19 C-25.65 19.33 -27.3 19.66 -29 20 C-25.22961307 15.66717966 -20.46335099 12.97971616 -15.625 10 C-13.95011116 8.95899217 -12.27562292 7.91733951 -10.6015625 6.875 C-9.81297852 6.38515625 -9.02439453 5.8953125 -8.21191406 5.390625 C-5.43712944 3.64612465 -2.71332582 1.83834453 0 0 Z " fill="#5CD341" transform="translate(372,176)"/>
<path d="M0 0 C0.33 0 0.66 0 1 0 C1.02465288 4.68139254 1.04283739 9.36274759 1.05493164 14.04418945 C1.05997157 15.63794614 1.0668035 17.23169819 1.07543945 18.82543945 C1.08751999 21.11150253 1.09323155 23.39750467 1.09765625 25.68359375 C1.10281754 26.40026718 1.10797882 27.11694061 1.11329651 27.85533142 C1.11349263 29.57063672 1.06192007 31.28581266 1 33 C0 34 0 34 -3.60180664 34.11352539 C-5.20459856 34.11336625 -6.8073956 34.10767063 -8.41015625 34.09765625 C-9.25219101 34.0962413 -10.09422577 34.09482635 -10.96177673 34.09336853 C-13.66205335 34.08775263 -16.36224828 34.07519748 -19.0625 34.0625 C-20.88867068 34.05748705 -22.71484266 34.05292379 -24.54101562 34.04882812 C-29.02737542 34.03777804 -33.51367384 34.02050279 -38 34 C-37.67 33.01 -37.34 32.02 -37 31 C-37 31.66 -37 32.32 -37 33 C-32.78228161 32.88166798 -28.56479177 32.75741398 -24.34741211 32.62768555 C-22.91288997 32.58439207 -21.47831816 32.54271301 -20.04370117 32.50268555 C-17.9808048 32.44484733 -15.91815717 32.38119247 -13.85546875 32.31640625 C-12.61434326 32.27974854 -11.37321777 32.24309082 -10.09448242 32.20532227 C-6.96446653 32.12855879 -6.96446653 32.12855879 -4 31 C-3.67 30.34 -3.34 29.68 -3 29 C-4.32 28.67 -5.64 28.34 -7 28 C-5.35 28 -3.7 28 -2 28 C-2 26.35 -2 24.7 -2 23 C-1.34 23 -0.68 23 0 23 C0 15.41 0 7.82 0 0 Z " fill="#63F93D" transform="translate(297,187)"/>
<path d="M0 0 C0.99 0.33 1.98 0.66 3 1 C2.01 1.33 1.02 1.66 0 2 C-0.268125 2.7425 -0.53625 3.485 -0.8125 4.25 C-2.44972186 8.04146115 -4.73335126 9.51450639 -8 12 C-7.01 12 -6.02 12 -5 12 C-4.67 11.34 -4.34 10.68 -4 10 C-2.68 10.33 -1.36 10.66 0 11 C-0.50888267 15.41031645 -3.03449072 17.89327599 -6 21 C-6.99 21 -7.98 21 -9 21 C-9 20.01 -9 19.02 -9 18 C-8.01 18 -7.02 18 -6 18 C-9.57644848 16.7619986 -12.33694766 17.25073929 -16 18 C-10.81643758 11.86157082 -5.42287737 5.92658337 0 0 Z " fill="#1A2120" transform="translate(356,251)"/>
<path d="M0 0 C0.33 0 0.66 0 1 0 C1 4.29 1 8.58 1 13 C2.32 13 3.64 13 5 13 C5 12.34 5 11.68 5 11 C5.66 11 6.32 11 7 11 C7 10.01 7 9.02 7 8 C8.32 8 9.64 8 11 8 C11 7.34 11 6.68 11 6 C13.31 6 15.62 6 18 6 C18 7.32 18 8.64 18 10 C19.32 9.67 20.64 9.34 22 9 C22.23460937 9.73863281 22.46921875 10.47726563 22.7109375 11.23828125 C24.21519805 14.46104553 25.8903401 15.94334259 28.625 18.1875 C30.11717235 19.41842451 31.58500394 20.68108392 33 22 C33 22.66 33 23.32 33 24 C29.69060402 22.56910817 27.64552547 20.80572265 25.1875 18.1875 C21.70197968 14.59734868 18.15804636 11.7720309 14 9 C10.16828838 10.76980402 7.1036139 13.15601771 3.8046875 15.7578125 C2 17 2 17 0 17 C0 11.39 0 5.78 0 0 Z " fill="#255228" transform="translate(302,235)"/>
<path d="M0 0 C0.99 0 1.98 0 3 0 C3.33 5.61 3.66 11.22 4 17 C5.32 17.66 6.64 18.32 8 19 C8 20.32 8 21.64 8 23 C6.35 23 4.7 23 3 23 C3 23.66 3 24.32 3 25 C2.01 25 1.02 25 0 25 C0 16.75 0 8.5 0 0 Z " fill="#58FA32" transform="translate(297,235)"/>
<path d="M0 0 C2.625 -0.1875 2.625 -0.1875 5 0 C2.64001696 2.80596409 0.48475304 4.33389011 -2.85546875 5.69921875 C-7.5739856 7.77489172 -11.87191519 9.7685794 -15 14 C-17.31577717 22.03710899 -16.62662879 30.74246704 -16 39 C-16.66 39 -17.32 39 -18 39 C-19.80117906 15.51917483 -19.80117906 15.51917483 -15.7265625 9.8203125 C-12.83773411 8.07772165 -10.20983867 7.0093015 -7 6 C-3.58428738 4.20200006 -2.17394829 3.26092244 0 0 Z " fill="#144611" transform="translate(359,181)"/>
<path d="M0 0 C1.98 0 3.96 0 6 0 C6.33 6.6 6.66 13.2 7 20 C6.01 19.67 5.02 19.34 4 19 C4 13.39 4 7.78 4 2 C3.01 2 2.02 2 1 2 C1 10.25 1 18.5 1 27 C1.99 27 2.98 27 4 27 C4 26.34 4 25.68 4 25 C5.32 25.33 6.64 25.66 8 26 C2.25 31 2.25 31 0 31 C0 20.77 0 10.54 0 0 Z " fill="#5BD542" transform="translate(296,233)"/>
<path d="M0 0 C2.72869407 0.03287583 5.2966618 0.56397771 8 1 C8.33 2.32 8.66 3.64 9 5 C9.66 5 10.32 5 11 5 C11 5.66 11 6.32 11 7 C7.2089881 5.55049545 3.6125362 3.84827434 0 2 C0.14133499 3.77119803 0.28823208 5.54195287 0.4375 7.3125 C0.55931641 8.79169922 0.55931641 8.79169922 0.68359375 10.30078125 C0.91812559 13.09375599 0.91812559 13.09375599 2 16 C6.455 15.505 6.455 15.505 11 15 C10.67 16.32 10.34 17.64 10 19 C7.69 19.33 5.38 19.66 3 20 C3 19.34 3 18.68 3 18 C2.01 17.67 1.02 17.34 0 17 C-2.31590289 13.52614567 -2.26991835 12.03569994 -2.25 7.9375 C-2.25515625 6.87402344 -2.2603125 5.81054688 -2.265625 4.71484375 C-2 2 -2 2 0 0 Z " fill="#27562A" transform="translate(316,139)"/>
<path d="M0 0 C0.33 0 0.66 0 1 0 C1.06058594 0.99902344 1.12117188 1.99804688 1.18359375 3.02734375 C1.26738281 4.31769531 1.35117187 5.60804688 1.4375 6.9375 C1.51871094 8.22527344 1.59992188 9.51304687 1.68359375 10.83984375 C1.64919188 13.86023957 1.64919188 13.86023957 3 15 C8.94 15.33 14.88 15.66 21 16 C21 28.54 21 41.08 21 54 C20.67 54 20.34 54 20 54 C20 41.79 20 29.58 20 17 C18.68 17.33 17.36 17.66 16 18 C13.62710114 18.11782292 11.25078987 18.17510026 8.875 18.1875 C7.63492187 18.20167969 6.39484375 18.21585938 5.1171875 18.23046875 C2 18 2 18 0 16 C-0.14507695 13.25514407 -0.18652423 10.61519457 -0.125 7.875 C-0.11146484 6.74384766 -0.11146484 6.74384766 -0.09765625 5.58984375 C-0.0740687 3.72642746 -0.03819719 1.86317407 0 0 Z " fill="#6ECA50" transform="translate(281,170)"/>
<path d="M0 0 C2 0 2 0 3.5859375 1.57421875 C4.17632812 2.27160156 4.76671875 2.96898437 5.375 3.6875 C6.30119141 4.77611328 6.30119141 4.77611328 7.24609375 5.88671875 C9.19461463 8.23449112 11.1215998 10.59564775 13 13 C11.20866022 13.05391993 9.41686101 13.09275571 7.625 13.125 C6.62726563 13.14820313 5.62953125 13.17140625 4.6015625 13.1953125 C2 13 2 13 0 11 C-0.1953125 8.3984375 -0.1953125 8.3984375 -0.125 5.375 C-0.10695313 4.37210938 -0.08890625 3.36921875 -0.0703125 2.3359375 C-0.04710937 1.56507813 -0.02390625 0.79421875 0 0 Z " fill="#98CA79" transform="translate(287,168)"/>
<path d="M0 0 C0 0.99 0 1.98 0 3 C-1.21816406 3.04898438 -2.43632812 3.09796875 -3.69140625 3.1484375 C-5.31512437 3.22352273 -6.93882126 3.29906802 -8.5625 3.375 C-9.76229492 3.42140625 -9.76229492 3.42140625 -10.98632812 3.46875 C-15.98220924 3.71344622 -20.23198211 4.5069843 -25 6 C-27.9375 6.125 -27.9375 6.125 -30 6 C-29 3 -29 3 -27.12890625 2.05078125 C-18.10307863 -0.54568971 -9.29903446 -0.27620894 0 0 Z " fill="#5AF734" transform="translate(358,97)"/>
<path d="M0 0 C0.33 0 0.66 0 1 0 C1 10.23 1 20.46 1 31 C3.64 29.02 6.28 27.04 9 25 C9.66 25 10.32 25 11 25 C11 27 11 27 9.6796875 28.5078125 C8.78636719 29.30832031 8.78636719 29.30832031 7.875 30.125 C7.29492188 30.66382813 6.71484375 31.20265625 6.1171875 31.7578125 C4 33 4 33 -2 33 C-2 28.71 -2 24.42 -2 20 C-1.67 20 -1.34 20 -1 20 C-0.67 13.4 -0.34 6.8 0 0 Z " fill="#245123" transform="translate(295,233)"/>
<path d="M0 0 C0.33 0 0.66 0 1 0 C1 10.23 1 20.46 1 31 C-0.65 31 -2.3 31 -4 31 C-4 31.99 -4 32.98 -4 34 C-5.32 33.67 -6.64 33.34 -8 33 C-7.34 33 -6.68 33 -6 33 C-6.16298584 32.29335205 -6.32597168 31.5867041 -6.49389648 30.85864258 C-7.01353414 27.92355461 -7.11358349 25.24011307 -7.09765625 22.26171875 C-7.09443359 21.19501953 -7.09121094 20.12832031 -7.08789062 19.02929688 C-7.07951172 17.92650391 -7.07113281 16.82371094 -7.0625 15.6875 C-7.05798828 14.56537109 -7.05347656 13.44324219 -7.04882812 12.28710938 C-7.03707313 9.5246849 -7.02064077 6.76237002 -7 4 C-6.67 4 -6.34 4 -6 4 C-5.99589111 4.64549805 -5.99178223 5.29099609 -5.98754883 5.95605469 C-5.95459937 8.88829328 -5.88395635 11.81845757 -5.8125 14.75 C-5.80669922 15.76578125 -5.80089844 16.7815625 -5.79492188 17.828125 C-5.76591797 18.8078125 -5.73691406 19.7875 -5.70703125 20.796875 C-5.6913208 21.69760742 -5.67561035 22.59833984 -5.65942383 23.52636719 C-5.05828123 26.76463711 -5.05828123 26.76463711 0 30 C0 20.1 0 10.2 0 0 Z " fill="#255323" transform="translate(302,140)"/>
<path d="M0 0 C0.99 0.103125 1.98 0.20625 3 0.3125 C5 3.3125 5 3.3125 5 6.3125 C4.01 6.6425 3.02 6.9725 2 7.3125 C2.66 7.3125 3.32 7.3125 4 7.3125 C3.67 8.3025 3.34 9.2925 3 10.3125 C0.125 10.4375 0.125 10.4375 -3 10.3125 C-5 8.3125 -5 8.3125 -5.25 5.3125 C-4.90578549 1.18192588 -4.11441953 0.42858537 0 0 Z " fill="#1A5816" transform="translate(270,203.6875)"/>
<path d="M0 0 C2.33301273 3.4995191 2.63545148 5.84414685 3 10 C2.7018576 11.34164079 2.37756808 12.67851173 2 14 C2.33 14.99 2.66 15.98 3 17 C2.67 17.99 2.34 18.98 2 20 C2.2475 20.86625 2.2475 20.86625 2.5 21.75 C3.21461018 24.96574581 2.48709928 27.75267147 2 31 C1.9157053 33.67401531 1.95304652 36.32365144 2 39 C0.02 39.495 0.02 39.495 -2 40 C-1.67 39.34 -1.34 38.68 -1 38 C-0.84293669 35.15791974 -0.7415043 32.33662693 -0.68359375 29.4921875 C-0.66281265 28.65156769 -0.64203156 27.81094788 -0.62062073 26.94485474 C-0.55514561 24.25498765 -0.4962498 21.56502157 -0.4375 18.875 C-0.39431284 17.05337511 -0.35069848 15.23176029 -0.30664062 13.41015625 C-0.19946632 8.94020606 -0.09819315 4.47015614 0 0 Z " fill="#253521" transform="translate(302,186)"/>
<path d="M0 0 C1.32 1.32 2.64 2.64 4 4 C3.01 4 2.02 4 1 4 C0.67 4.99 0.34 5.98 0 7 C1.32 7.33 2.64 7.66 4 8 C3.67 8.99 3.34 9.98 3 11 C1.68 11 0.36 11 -1 11 C-3.46322031 13.19719391 -3.46322031 13.19719391 -5.75 16 C-6.54921875 16.928125 -7.3484375 17.85625 -8.171875 18.8125 C-8.77515625 19.534375 -9.3784375 20.25625 -10 21 C-10.33 19.68 -10.66 18.36 -11 17 C-10.01 17 -9.02 17 -8 17 C-7.896875 16.21625 -7.79375 15.4325 -7.6875 14.625 C-7 12 -7 12 -4 10 C-3.01 9.67 -2.02 9.34 -1 9 C-1 8.01 -1 7.02 -1 6 C-1.99 6 -2.98 6 -4 6 C-2.84826645 3.53199953 -1.95216435 1.95216435 0 0 Z " fill="#62EC3F" transform="translate(356,242)"/>
<path d="M0 0 C-0.6496875 0.37511719 -1.299375 0.75023437 -1.96875 1.13671875 C-2.8040625 1.64847656 -3.639375 2.16023437 -4.5 2.6875 C-5.3353125 3.18636719 -6.170625 3.68523437 -7.03125 4.19921875 C-9.26160561 5.85335557 -9.26160561 5.85335557 -9.3515625 8.58984375 C-9.15625396 11.01252439 -9.15625396 11.01252439 -7.875 12.875 C-5.9163662 14.29027526 -5.9163662 14.29027526 -2.875 13.8125 C-1.451875 13.4103125 -1.451875 13.4103125 0 13 C1.28446919 10.43106162 1.32977144 8.23423663 1.5625 5.375 C1.64628906 4.37210938 1.73007812 3.36921875 1.81640625 2.3359375 C1.87699219 1.56507813 1.93757813 0.79421875 2 0 C2.33 0 2.66 0 3 0 C3.05402274 2.10388569 3.09280256 4.20816714 3.125 6.3125 C3.14820313 7.48425781 3.17140625 8.65601563 3.1953125 9.86328125 C3 13 3 13 1 16 C-2.03846274 16.63997982 -4.94274375 16.49364872 -8 16 C-10.95400517 13.69218346 -11.00746318 11.95929173 -11.6875 8.25 C-11.790625 7.1775 -11.89375 6.105 -12 5 C-10.68 4.67 -9.36 4.34 -8 4 C-8 3.34 -8 2.68 -8 2 C-3.61016949 -1.20338983 -3.61016949 -1.20338983 0 0 Z " fill="#255A24" transform="translate(355,141)"/>
<path d="M0 0 C0.99 0.33 1.98 0.66 3 1 C3 1.66 3 2.32 3 3 C2.34 3 1.68 3 1 3 C1 4.32 1 5.64 1 7 C0.40703125 7.07089844 -0.1859375 7.14179687 -0.796875 7.21484375 C-3.81453665 8.290287 -4.58238632 9.87157792 -6.25 12.5625 C-6.77078125 13.38878906 -7.2915625 14.21507813 -7.828125 15.06640625 C-8.21484375 15.70449219 -8.6015625 16.34257813 -9 17 C-9.66 16.67 -10.32 16.34 -11 16 C-10.52773919 11.31112485 -8.69435491 9.12631183 -5.5 5.75 C-4.6853125 4.87859375 -3.870625 4.0071875 -3.03125 3.109375 C-1 1 -1 1 0 0 Z " fill="#58FB34" transform="translate(316,108)"/>
<path d="M0 0 C0.70640625 -0.0093457 1.4128125 -0.01869141 2.140625 -0.02832031 C5.86660161 -0.00507766 7.51048215 0.1319881 10.6875 2.25 C9.56214844 2.27578125 8.43679688 2.3015625 7.27734375 2.328125 C-2.11617562 2.64275032 -10.48152003 3.72330749 -19.46875 6.5078125 C-22.3125 7.25 -22.3125 7.25 -24.3125 6.25 C-16.04993512 1.82362596 -9.37974889 0.0877784 0 0 Z " fill="#255C25" transform="translate(350.3125,100.75)"/>
<path d="M0 0 C0.66 0.33 1.32 0.66 2 1 C1.236875 1.598125 0.47375 2.19625 -0.3125 2.8125 C-2.36681982 4.48462078 -4.17549176 6.09947058 -6 8 C-6.86625 8.825 -7.7325 9.65 -8.625 10.5 C-11.1812626 12.83688754 -11.1812626 12.83688754 -12 16 C-12.66 16 -13.32 16 -14 16 C-14.2475 16.969375 -14.495 17.93875 -14.75 18.9375 C-16.03854722 23.49410178 -17.99998479 27.71841403 -20 32 C-21.51804818 27.58660164 -20.20667991 24.9332328 -18.421875 20.7890625 C-13.95093697 12.0191456 -8.11942748 5.50692651 0 0 Z " fill="#245924" transform="translate(324,108)"/>
<path d="M0 0 C0.66 0.66 1.32 1.32 2 2 C0.16888672 2.03867188 0.16888672 2.03867188 -1.69921875 2.078125 C-11.87448396 2.39302682 -20.3922997 3.49033779 -30 7 C-31.3281095 7.35357325 -32.65971477 7.69582179 -34 8 C-34 7.34 -34 6.68 -34 6 C-30.77208445 3.8480563 -29.71599191 3.79913557 -26 4 C-26 3.34 -26 2.68 -26 2 C-17.40130923 0.236166 -8.78289051 -0.82263988 0 0 Z " fill="#0E370F" transform="translate(358,93)"/>
<path d="M0 0 C0.62004175 9.98956159 0.62004175 9.98956159 -1.6875 13.75 C-4 15 -4 15 -6.5625 14.9375 C-9.18253113 13.92979572 -10.42537756 13.32049623 -12 11 C-12.34375 8.59765625 -12.34375 8.59765625 -12 6 C-10.13671875 4.19921875 -10.13671875 4.19921875 -7.6875 2.6875 C-6.88699219 2.17574219 -6.08648437 1.66398438 -5.26171875 1.13671875 C-3 0 -3 0 0 0 Z M-7.1875 4.4375 C-8.115625 4.953125 -9.04375 5.46875 -10 6 C-10.16687448 8.41645782 -10.16687448 8.41645782 -10 11 C-9.34 11.66 -8.68 12.32 -8 13 C-4.70285207 12.67028521 -3.3773161 12.3773161 -1 10 C-0.83318891 6.91652174 -0.83318891 6.91652174 -1 4 C-4.07242053 2.59903754 -4.07242053 2.59903754 -7.1875 4.4375 Z " fill="#5BC646" transform="translate(357,141)"/>
<path d="M0 0 C0 0.99 0 1.98 0 3 C0.66 3 1.32 3 2 3 C2 3.66 2 4.32 2 5 C0.783125 4.814375 -0.43375 4.62875 -1.6875 4.4375 C-5.02977939 4.01006818 -7.71968417 4.07741117 -11 5 C-11.33 4.01 -11.66 3.02 -12 2 C-7.94852831 -2.43732613 -5.44932413 -2.05863356 0 0 Z " fill="#5CF436" transform="translate(390,248)"/>
<path d="M0 0 C0.33 0 0.66 0 1 0 C1 4.29 1 8.58 1 13 C0.01 13.33 -0.98 13.66 -2 14 C-5.6129609 12.02929405 -6.75237172 9.84685385 -8 6 C-6.02 5.67 -4.04 5.34 -2 5 C-2 4.34 -2 3.68 -2 3 C-1.34 3 -0.68 3 0 3 C0 2.01 0 1.02 0 0 Z " fill="#59F234" transform="translate(401,248)"/>
<path d="M0 0 C4.69046713 4.01848043 6.10117413 10.07412393 7 16 C7.46742546 23.32343049 7.25656609 30.6710909 7 38 C6.67 38 6.34 38 6 38 C5.67 29.42 5.34 20.84 5 12 C4.34 12 3.68 12 3 12 C-0.42857143 4.71428571 -0.42857143 4.71428571 0 0 Z " fill="#5FE442" transform="translate(396,122)"/>
<path d="M0 0 C3.29680965 0.65784963 5.84117922 1.89420573 8.75 3.5625 C9.94882812 4.24505859 9.94882812 4.24505859 11.171875 4.94140625 C11.77515625 5.29074219 12.3784375 5.64007813 13 6 C12.140625 10.7734375 12.140625 10.7734375 10.875 12.8125 C7.89865546 14.69751821 5.41997675 14.37308837 2 14 C-0.28062828 10.57905758 -0.21925007 9.31812778 -0.125 5.3125 C-0.10695313 4.31863281 -0.08890625 3.32476562 -0.0703125 2.30078125 C-0.04710937 1.54152344 -0.02390625 0.78226563 0 0 Z M1 2 C1 4.64 1 7.28 1 10 C1.66 10 2.32 10 3 10 C3.33 10.99 3.66 11.98 4 13 C5.65 12.67 7.3 12.34 9 12 C9.33 10.35 9.66 8.7 10 7 C9.01 6.67 8.02 6.34 7 6 C7 5.34 7 4.68 7 4 C5.02 3.34 3.04 2.68 1 2 Z " fill="#60D04B" transform="translate(316,141)"/>
<path d="M0 0 C4 2 4 2 7 5 C4.03 4.67 1.06 4.34 -2 4 C-2 4.99 -2 5.98 -2 7 C-3.57421875 8.7890625 -3.57421875 8.7890625 -5.6875 10.625 C-6.37199219 11.23601562 -7.05648438 11.84703125 -7.76171875 12.4765625 C-10.21465149 14.14609787 -12.08138069 14.62175512 -15 15 C-15.66 13.35 -16.32 11.7 -17 10 C-14.525 11.485 -14.525 11.485 -12 13 C-8.04 8.71 -4.08 4.42 0 0 Z " fill="#144514" transform="translate(384,251)"/>
<path d="M0 0 C6.15234375 -0.09765625 6.15234375 -0.09765625 8 0 C9 1 9 1 9.09765625 3.06640625 C9.08605469 3.89011719 9.07445312 4.71382812 9.0625 5.5625 C9.05347656 6.38878906 9.04445313 7.21507812 9.03515625 8.06640625 C9.02355469 8.70449219 9.01195312 9.34257812 9 10 C8.01 10 7.02 10 6 10 C6 7.36 6 4.72 6 2 C5.01 2.33 4.02 2.66 3 3 C2.67 5.31 2.34 7.62 2 10 C1.34 10 0.68 10 0 10 C0 6.7 0 3.4 0 0 Z " fill="#0E4D0A" transform="translate(277,204)"/>
<path d="M0 0 C0.45890625 0.433125 0.9178125 0.86625 1.390625 1.3125 C2.00421875 1.869375 2.6178125 2.42625 3.25 3 C3.85328125 3.556875 4.4565625 4.11375 5.078125 4.6875 C7.162653 6.37597443 7.162653 6.37597443 11 6 C12.54960501 4.71881303 12.54960501 4.71881303 13.75 3 C14.4925 2.01 15.235 1.02 16 0 C16.103125 0.61875 16.20625 1.2375 16.3125 1.875 C16.87525373 4.36526484 16.87525373 4.36526484 20 6 C18.02 7.65 16.04 9.3 14 11 C14.66 9.02 15.32 7.04 16 5 C15.46375 5.66 14.9275 6.32 14.375 7 C12 9 12 9 8.9375 9.4375 C5.71912982 8.95816827 4.97353447 8.46691809 3 6 C2.34 5.67 1.68 5.34 1 5 C0.375 2.4375 0.375 2.4375 0 0 Z " fill="#61E345" transform="translate(362,248)"/>
<path d="M0 0 C0 0.99 0 1.98 0 3 C-2.31 3 -4.62 3 -7 3 C-7 11.25 -7 19.5 -7 28 C-7.33 28 -7.66 28 -8 28 C-8.66959903 22.03339439 -9.12918244 16.06445286 -9.3125 10.0625 C-9.34988281 9.00160156 -9.38726562 7.94070312 -9.42578125 6.84765625 C-8.5952887 1.2932611 -5.3564343 -0.59515937 0 0 Z " fill="#0F2714" transform="translate(302,230)"/>
<path d="M0 0 C8.1418722 5.50773708 12.67306069 14.6521231 15 24 C15.2777253 27.09529324 15.20423025 29.88548876 15 33 C14.67 33 14.34 33 14 33 C13.34 28.38 12.68 23.76 12 19 C11.34 19 10.68 19 10 19 C9.7525 18.319375 9.505 17.63875 9.25 16.9375 C8.2434992 14.57222311 7.1740737 12.51447598 5.875 10.3125 C4 7 4 7 4 5 C3.01 4.67 2.02 4.34 1 4 C0.3125 1.9375 0.3125 1.9375 0 0 Z " fill="#154913" transform="translate(382,114)"/>
<path d="M0 0 C0.66 0 1.32 0 2 0 C1.3001048 3.14952839 0.34839851 6.0652503 -1 9 C-1.99 9.495 -1.99 9.495 -3 10 C-5.72872311 8.56742037 -7.81722366 7.18277634 -10 5 C-10 4.01 -10 3.02 -10 2 C-9.34 2 -8.68 2 -8 2 C-8 2.66 -8 3.32 -8 4 C-6.02 4 -4.04 4 -2 4 C-1.34 2.68 -0.68 1.36 0 0 Z " fill="#59FA31" transform="translate(376,253)"/>
<path d="M0 0 C5.94 0 11.88 0 18 0 C18 0.33 18 0.66 18 1 C10.08 1.495 10.08 1.495 2 2 C1.03813069 5.84747723 0.69340973 9.30167852 0.4375 13.25 C0.35371094 14.51328125 0.26992188 15.7765625 0.18359375 17.078125 C0.12300781 18.04234375 0.06242187 19.0065625 0 20 C1.65 20 3.3 20 5 20 C4.67 20.99 4.34 21.98 4 23 C2.35 22.67 0.7 22.34 -1 22 C-1.02895225 18.70835171 -1.0467823 15.41673601 -1.0625 12.125 C-1.07506836 10.71927734 -1.07506836 10.71927734 -1.08789062 9.28515625 C-1.09111328 8.38925781 -1.09433594 7.49335938 -1.09765625 6.5703125 C-1.10289307 5.74289551 -1.10812988 4.91547852 -1.11352539 4.06298828 C-1 2 -1 2 0 0 Z " fill="#59F832" transform="translate(261,172)"/>
<path d="M0 0 C0.99 0 1.98 0 3 0 C3.33 1.65 3.66 3.3 4 5 C4.66 5 5.32 5 6 5 C6 3.35 6 1.7 6 0 C6.99 0 7.98 0 9 0 C8.46274105 3.37705625 7.88935377 6.696686 7 10 C5.68 10 4.36 10 3 10 C0 3.375 0 3.375 0 0 Z " fill="#10540A" transform="translate(287,204)"/>
<path d="M0 0 C0 0.66 0 1.32 0 2 C1.65 2.33 3.3 2.66 5 3 C1.92307254 5.6815279 -0.19734663 6.42087807 -4.25 6.6875 C-5.14203125 6.75324219 -6.0340625 6.81898437 -6.953125 6.88671875 C-7.62859375 6.92410156 -8.3040625 6.96148437 -9 7 C-7.20098245 1.74133331 -5.88456942 0 0 0 Z " fill="#5CDA41" transform="translate(329,100)"/>
<path d="M0 0 C0 3 0 3 -1.375 4.4375 C-1.91125 4.953125 -2.4475 5.46875 -3 6 C-3.433125 7.0209375 -3.433125 7.0209375 -3.875 8.0625 C-5.41608502 10.71659087 -7.15765839 11.0525528 -10 12 C-11.73956658 13.73956658 -11.37190386 16.1936622 -11.5625 18.5625 C-11.64628906 19.57441406 -11.73007812 20.58632812 -11.81640625 21.62890625 C-11.87699219 22.41136719 -11.93757813 23.19382813 -12 24 C-10.68 24.33 -9.36 24.66 -8 25 C-9.65 25.33 -11.3 25.66 -13 26 C-14.06379855 13.82541664 -14.06379855 13.82541664 -11.65234375 9.6875 C-9.8630629 7.92574655 -8.04179559 6.45900763 -6 5 C-4.84931697 4.02653713 -3.70301244 3.0478592 -2.5625 2.0625 C-1.716875 1.381875 -0.87125 0.70125 0 0 Z " fill="#225921" transform="translate(361,187)"/>
<path d="M0 0 C5.01370901 3.64027277 9.71512304 7.44094694 14.23828125 11.6796875 C16.03317933 13.29985804 16.03317933 13.29985804 19 13 C18.67 14.32 18.34 15.64 18 17 C14.16488047 15.43754389 11.89634216 12.89634216 9 10 C8.2575 9.649375 7.515 9.29875 6.75 8.9375 C6.1725 8.628125 5.595 8.31875 5 8 C4.66666667 6.66666667 4.33333333 5.33333333 4 4 C2.0162233 2.71563266 2.0162233 2.71563266 0 2 C0 1.34 0 0.68 0 0 Z M1 9 C1.66 9.33 2.32 9.66 3 10 C2.01 10.66 1.02 11.32 0 12 C-0.33 11.34 -0.66 10.68 -1 10 C-0.34 9.67 0.32 9.34 1 9 Z " fill="#16401C" transform="translate(321,256)"/>
<path d="M0 0 C0.88171875 0.54527344 1.7634375 1.09054688 2.671875 1.65234375 C3.56390625 2.20019531 4.4559375 2.74804688 5.375 3.3125 C6.38820313 3.94478516 6.38820313 3.94478516 7.421875 4.58984375 C4.421875 5.58984375 4.421875 5.58984375 2.6953125 4.77734375 C2.06882812 4.38546875 1.44234375 3.99359375 0.796875 3.58984375 C-3.92503582 1.05931696 -7.46556045 1.52067626 -12.578125 2.58984375 C-13.58875 2.77546875 -14.599375 2.96109375 -15.640625 3.15234375 C-16.5996875 3.36890625 -16.5996875 3.36890625 -17.578125 3.58984375 C-16.18960485 0.81280344 -14.61024018 0.55601638 -11.765625 -0.59765625 C-10.45658203 -1.14486328 -10.45658203 -1.14486328 -9.12109375 -1.703125 C-5.23909606 -2.78245155 -3.47347742 -1.89988689 0 0 Z " fill="#144612" transform="translate(362.578125,217.41015625)"/>
<path d="M0 0 C2.4375 0.625 2.4375 0.625 5 2 C5.875 5.0625 5.875 5.0625 6 8 C5 9 5 9 1.9375 9.0625 C0.968125 9.041875 -0.00125 9.02125 -1 9 C-1.09765625 2.84765625 -1.09765625 2.84765625 -1 1 C-0.67 0.67 -0.34 0.34 0 0 Z " fill="#47DF27" transform="translate(261,211)"/>
<path d="M0 0 C2.4375 0.375 2.4375 0.375 5 1 C5.33 1.66 5.66 2.32 6 3 C5.34 3 4.68 3 4 3 C4.66 4.32 5.32 5.64 6 7 C5.01 7.66 4.02 8.32 3 9 C-0.26460973 7.19587357 -1.88929795 6.16605307 -4 3 C-2.68 3 -1.36 3 0 3 C0 2.01 0 1.02 0 0 Z " fill="#1C2825" transform="translate(298,171)"/>
<path d="M0 0 C0.99 0.33 1.98 0.66 3 1 C2.01 1.33 1.02 1.66 0 2 C-0.268125 2.7425 -0.53625 3.485 -0.8125 4.25 C-2.39876082 7.9234461 -4.92640169 9.50270138 -8 12 C-8.33 12.721875 -8.66 13.44375 -9 14.1875 C-10 16 -10 16 -13.125 17.25 C-14.07375 17.4975 -15.0225 17.745 -16 18 C-10.81643758 11.86157082 -5.42287737 5.92658337 0 0 Z " fill="#104310" transform="translate(356,251)"/>
<path d="M0 0 C0.99 0 1.98 0 3 0 C3 3 3 3 1.6875 4.625 C0 6 0 6 -3 7 C-3.73323796 9.01508358 -3.73323796 9.01508358 -4 11 C-4.99 11 -5.98 11 -7 11 C-7 12.32 -7 13.64 -7 15 C-7.99 15 -8.98 15 -10 15 C-10 11 -10 11 -7.8125 8.625 C-6.884375 7.75875 -5.95625 6.8925 -5 6 C-4.11267234 4.90571546 -3.23739662 3.80153819 -2.375 2.6875 C-1.59125 1.800625 -0.8075 0.91375 0 0 Z " fill="#5BFA31" transform="translate(352,248)"/>
<path d="M0 0 C0.33 0 0.66 0 1 0 C1.66 4.29 2.32 8.58 3 13 C8.61 13.66 14.22 14.32 20 15 C20 15.33 20 15.66 20 16 C17.04142591 16.05379226 14.08382279 16.09357093 11.125 16.125 C9.86236328 16.15013672 9.86236328 16.15013672 8.57421875 16.17578125 C7.36572266 16.18544922 7.36572266 16.18544922 6.1328125 16.1953125 C5.38918457 16.20578613 4.64555664 16.21625977 3.87939453 16.22705078 C2 16 2 16 0 14 C-0.1953125 10.7421875 -0.1953125 10.7421875 -0.125 6.875 C-0.10695313 5.59367188 -0.08890625 4.31234375 -0.0703125 2.9921875 C-0.04710937 2.00476563 -0.02390625 1.01734375 0 0 Z " fill="#134312" transform="translate(282,170)"/>
<path d="M0 0 C1.8125 0.375 1.8125 0.375 4 1 C4.7425 1.185625 5.485 1.37125 6.25 1.5625 C6.8275 1.706875 7.405 1.85125 8 2 C7.67 2.99 7.34 3.98 7 5 C3.52674819 6.1577506 0.63932552 6.06866652 -3 6 C-1.125 1.125 -1.125 1.125 0 0 Z " fill="#52FC2E" transform="translate(286,214)"/>
<path d="M0 0 C7.26677385 3.07440432 11.60834143 8.72397729 16 15 C15.67 15.66 15.34 16.32 15 17 C14.443125 16.278125 13.88625 15.55625 13.3125 14.8125 C10.18828476 11.01277877 7.1011912 7.73412747 3 5 C3 4.34 3 3.68 3 3 C2.01 2.67 1.02 2.34 0 2 C0 1.34 0 0.68 0 0 Z " fill="#5ED74A" transform="translate(380,105)"/>
<path d="M0 0 C0 3.74016583 -0.9341591 4.45276193 -3.375 7.1875 C-4.00148438 7.90292969 -4.62796875 8.61835938 -5.2734375 9.35546875 C-7 11 -7 11 -9 11 C-9 12.32 -9 13.64 -9 15 C-8.01 15.33 -7.02 15.66 -6 16 C-7.32 16.99 -8.64 17.98 -10 19 C-10 17.35 -10 15.7 -10 14 C-10.66 14 -11.32 14 -12 14 C-10.41332422 10.09714233 -7.86649519 7.66479018 -4.875 4.75 C-3.96492188 3.85796875 -3.05484375 2.9659375 -2.1171875 2.046875 C-1.41851562 1.37140625 -0.71984375 0.6959375 0 0 Z " fill="#64DD46" transform="translate(351,248)"/>
<path d="M0 0 C0.33 1.32 0.66 2.64 1 4 C-0.32 4 -1.64 4 -3 4 C-2.67 4.99 -2.34 5.98 -2 7 C-3 8 -3 8 -6.5625 8.0625 C-7.696875 8.041875 -8.83125 8.02125 -10 8 C-8.89904638 4.69713914 -8.3103981 4.21489099 -5.5625 2.3125 C-4.94503906 1.87550781 -4.32757813 1.43851563 -3.69140625 0.98828125 C-2 0 -2 0 0 0 Z " fill="#59F432" transform="translate(316,245)"/>
<path d="M0 0 C2.31 1.98 4.62 3.96 7 6 C6.67 6.66 6.34 7.32 6 8 C3.69 8 1.38 8 -1 8 C-1.04241723 5.66705225 -1.04092937 3.33297433 -1 1 C-0.67 0.67 -0.34 0.34 0 0 Z " fill="#A9FA72" transform="translate(290,171)"/>
<path d="M0 0 C0.99 0.33 1.98 0.66 3 1 C3.07347656 2.04800781 3.07347656 2.04800781 3.1484375 3.1171875 C3.22320312 4.02726563 3.29796875 4.93734375 3.375 5.875 C3.44460938 6.77992188 3.51421875 7.68484375 3.5859375 8.6171875 C3.79568132 11.17941903 3.79568132 11.17941903 6 13 C4.68 13.33 3.36 13.66 2 14 C-0.3992233 9.35150485 -0.19957409 5.08913926 0 0 Z " fill="#162325" transform="translate(283,170)"/>
<path d="M0 0 C0.66 0 1.32 0 2 0 C2.12190678 8.39802254 1.84327749 16.64251778 1 25 C0.67 25 0.34 25 0 25 C-0.19585353 21.02119772 -0.3802867 17.04194844 -0.5625 13.0625 C-0.61857422 11.92619141 -0.67464844 10.78988281 -0.73242188 9.61914062 C-0.78076172 8.53955078 -0.82910156 7.45996094 -0.87890625 6.34765625 C-0.9260376 5.34742432 -0.97316895 4.34719238 -1.02172852 3.31665039 C-1 1 -1 1 0 0 Z " fill="#1C2C1E" transform="translate(287,234)"/>
<path d="M0 0 C0.99 0 1.98 0 3 0 C11.55366005 14.90973945 11.55366005 14.90973945 11 21 C9.37813574 18.56720362 8.30677127 16.53267392 7.1875 13.875 C5.09585337 9.06815925 2.61748915 4.53769635 0 0 Z " fill="#60DA45" transform="translate(386,117)"/>
<path d="M0 0 C2.64 0 5.28 0 8 0 C8 1.98 8 3.96 8 6 C4.62537285 5.45276317 2.91765 4.9451 0 3 C0 2.01 0 1.02 0 0 Z " fill="#5DF735" transform="translate(333,262)"/>
<path d="M0 0 C4.455 0.99 4.455 0.99 9 2 C9.33 3.32 9.66 4.64 10 6 C8.88625 5.505 8.88625 5.505 7.75 5 C4.86116688 3.77217129 4.86116688 3.77217129 1 4 C-1.73219193 5.91859167 -1.73219193 5.91859167 -4 8 C-3.67 6.02 -3.34 4.04 -3 2 C-2.01 2.33 -1.02 2.66 0 3 C0 2.01 0 1.02 0 0 Z " fill="#143D14" transform="translate(381,241)"/>
<path d="M0 0 C3.21043882 1.38188453 5.04936365 2.92421903 7.25 5.625 C7.77078125 6.25664062 8.2915625 6.88828125 8.828125 7.5390625 C9.40820312 8.26222656 9.40820312 8.26222656 10 9 C5.1725201 7.58707905 1.2837641 5.57025846 -3 3 C-2.01 2.67 -1.02 2.34 0 2 C0 1.34 0 0.68 0 0 Z " fill="#5DC449" transform="translate(364,215)"/>
<path d="M0 0 C0.99 1.485 0.99 1.485 2 3 C5.58357241 3.25015873 5.58357241 3.25015873 9 3 C9.33 2.34 9.66 1.68 10 1 C10 1.99 10 2.98 10 4 C9.01 4.33 8.02 4.66 7 5 C7.66 5 8.32 5 9 5 C8.67 5.99 8.34 6.98 8 8 C5.125 8.125 5.125 8.125 2 8 C0 6 0 6 -0.125 2.875 C-0.08375 1.92625 -0.0425 0.9775 0 0 Z " fill="#1E6814" transform="translate(265,206)"/>
<path d="M0 0 C0.99 0 1.98 0 3 0 C2.67 5.28 2.34 10.56 2 16 C1.34 16 0.68 16 0 16 C0 10.72 0 5.44 0 0 Z " fill="#55F82F" transform="translate(345,195)"/>
<path d="M0 0 C0.66 0 1.32 0 2 0 C1.68806536 1.72926874 1.37542638 3.45841044 1.0625 5.1875 C0.88847656 6.15042969 0.71445312 7.11335937 0.53515625 8.10546875 C0.0476265 10.74239972 -0.46671105 13.3719905 -1 16 C-1.33 16 -1.66 16 -2 16 C-4 9.375 -4 9.375 -4 6 C-2.68 5.67 -1.36 5.34 0 5 C0 3.35 0 1.7 0 0 Z " fill="#113216" transform="translate(297,128)"/>
<path d="M0 0 C0 0.99 0 1.98 0 3 C-0.33 2.34 -0.66 1.68 -1 1 C-2.32 1 -3.64 1 -5 1 C-5 1.66 -5 2.32 -5 3 C-4.34 3.33 -3.68 3.66 -3 4 C-6.20395416 4 -8.09399739 3.25664978 -11 2 C-11 1.34 -11 0.68 -11 0 C-6.66370819 -2.2956839 -4.46535773 -1.86921951 0 0 Z " fill="#58E23E" transform="translate(324,249)"/>
<path d="M0 0 C2.50298434 2.93828597 3.46930939 5.17902761 4 9 C5.32 9 6.64 9 8 9 C8.33 7.68 8.66 6.36 9 5 C9.33 5.99 9.66 6.98 10 8 C9.67 8.66 9.34 9.32 9 10 C6.03 9.67 3.06 9.34 0 9 C0 6.03 0 3.06 0 0 Z " fill="#5EDE47" transform="translate(286,205)"/>
<path d="M0 0 C1.67542976 0.28604898 3.34385343 0.61781233 5 1 C5.33 2.65 5.66 4.3 6 6 C3.69 6.33 1.38 6.66 -1 7 C-1.04254356 5.00045254 -1.04080783 2.99958364 -1 1 C-0.67 0.67 -0.34 0.34 0 0 Z " fill="#1A1F24" transform="translate(311,99)"/>
<path d="M0 0 C0.66 0.33 1.32 0.66 2 1 C-1.96 4.3 -5.92 7.6 -10 11 C-10.66 10.67 -11.32 10.34 -12 10 C-10.69522778 6.08568335 -9.01326694 5.42187412 -5.5625 3.25 C-4.57378906 2.61578125 -3.58507812 1.9815625 -2.56640625 1.328125 C-1.29603516 0.67070312 -1.29603516 0.67070312 0 0 Z " fill="#62B851" transform="translate(372,176)"/>
<path d="M0 0 C1.32 0.33 2.64 0.66 4 1 C2.89966185 2.60679516 1.79457336 4.21033793 0.6875 5.8125 C0.07261719 6.70582031 -0.54226563 7.59914063 -1.17578125 8.51953125 C-2.67715037 10.56100746 -4.14785401 12.28462787 -6 14 C-5.47731534 11.23723823 -4.89130413 8.6739124 -4 6 C-3.34 5.67 -2.68 5.34 -2 5 C-1.27840576 3.35636866 -0.60648579 1.68949614 0 0 Z " fill="#113814" transform="translate(305,113)"/>
<path d="M0 0 C2.125 1.5625 2.125 1.5625 4.125 4.5625 C3.09375 4.335625 2.0625 4.10875 1 3.875 C-3.39218258 3.52079173 -5.11134645 4.46185616 -8.875 6.5625 C-9.535 6.2325 -10.195 5.9025 -10.875 5.5625 C-3.87180712 -0.58918804 -3.87180712 -0.58918804 0 0 Z " fill="#124011" transform="translate(316.875,251.4375)"/>
<path d="M0 0 C0.33 0 0.66 0 1 0 C1 7.92 1 15.84 1 24 C0.34 23.67 -0.32 23.34 -1 23 C-1 22.34 -1 21.68 -1 21 C-1.66 21 -2.32 21 -3 21 C-3 20.34 -3 19.68 -3 19 C-2.01 19 -1.02 19 0 19 C0 12.73 0 6.46 0 0 Z " fill="#5DF33F" transform="translate(300,144)"/>
<path d="M0 0 C1.75 1.375 1.75 1.375 3 3 C3 3.99 3 4.98 3 6 C1.35 5.67 -0.3 5.34 -2 5 C-1.34 4.67 -0.68 4.34 0 4 C-0.33 3.34 -0.66 2.68 -1 2 C-4.3 2 -7.6 2 -11 2 C-7.14287524 -0.57141651 -4.45676757 -1.72520035 0 0 Z " fill="#61E348" transform="translate(361,211)"/>
<path d="M0 0 C2.87255066 2.42195448 3.70838919 4.59742703 4.6875 8.1875 C4.93886719 9.08855469 5.19023437 9.98960937 5.44921875 10.91796875 C5.63097656 11.60503906 5.81273437 12.29210937 6 13 C3 12 3 12 1.3125 8.75 C0.16055679 5.45873369 -0.31025348 3.4127883 0 0 Z " fill="#59D243" transform="translate(396,122)"/>
<path d="M0 0 C4.43458973 1.3937282 6.87378374 3.60582235 10 7 C8.88625 6.5359375 8.88625 6.5359375 7.75 6.0625 C3.26650797 4.33024172 0.74038942 3.81490264 -4 5 C-2.68 3.35 -1.36 1.7 0 0 Z " fill="#61D746" transform="translate(383,243)"/>
<path d="M0 0 C0.33 0.99 0.66 1.98 1 3 C-2.63 3.33 -6.26 3.66 -10 4 C-9.67 3.01 -9.34 2.02 -9 1 C-5.8035914 -0.06546953 -3.34252724 -0.07427838 0 0 Z " fill="#5BF833" transform="translate(360,212)"/>
<path d="M0 0 C0.66 0.33 1.32 0.66 2 1 C0.515 2.485 0.515 2.485 -1 4 C0.32 5.32 1.64 6.64 3 8 C1.68 8.33 0.36 8.66 -1 9 C-1 8.01 -1 7.02 -1 6 C-2.32 5.67 -3.64 5.34 -5 5 C-5 4.34 -5 3.68 -5 3 C-2.625 1.3125 -2.625 1.3125 0 0 Z " fill="#122019" transform="translate(311,255)"/>
<path d="M0 0 C0.33 0.66 0.66 1.32 1 2 C2.32 2 3.64 2 5 2 C5.06058594 2.77085937 5.12117188 3.54171875 5.18359375 4.3359375 C5.26738281 5.33882812 5.35117187 6.34171875 5.4375 7.375 C5.51871094 8.37273437 5.59992188 9.37046875 5.68359375 10.3984375 C5.84965626 12.97927613 5.84965626 12.97927613 7 15 C6.01 15 5.02 15 4 15 C3.67 11.7 3.34 8.4 3 5 C2.01 4.67 1.02 4.34 0 4 C0 2.68 0 1.36 0 0 Z " fill="#1D3316" transform="translate(282,166)"/>
<path d="M0 0 C1.98 0.66 3.96 1.32 6 2 C5.125 6.75 5.125 6.75 4 9 C2.68 8.67 1.36 8.34 0 8 C0.66 8 1.32 8 2 8 C2 6.35 2 4.7 2 3 C1.34 2.67 0.68 2.34 0 2 C0 1.34 0 0.68 0 0 Z " fill="#5CD846" transform="translate(323,145)"/>
<path d="M0 0 C0.33 0.99 0.66 1.98 1 3 C-0.11375 3.433125 -1.2275 3.86625 -2.375 4.3125 C-6.17512334 5.69911119 -6.17512334 5.69911119 -8 9 C-8.99 9 -9.98 9 -11 9 C-9.72648692 5.17946076 -8.37362475 4.76978625 -4.9375 2.8125 C-4.01839844 2.28269531 -3.09929687 1.75289063 -2.15234375 1.20703125 C-1.44207031 0.80871094 -0.73179687 0.41039063 0 0 Z " fill="#14211B" transform="translate(323,91)"/>
<path d="M0 0 C3.70384688 1.42455649 5.90283071 3.80439725 8.53515625 6.66015625 C10.07501668 8.25108699 10.07501668 8.25108699 13 9 C12.67 9.99 12.34 10.98 12 12 C7.47384007 8.32167983 3.60575001 4.58913637 0 0 Z " fill="#68DF4F" transform="translate(360,253)"/>
<path d="M0 0 C0.66 0 1.32 0 2 0 C1.3001048 3.14952839 0.34839851 6.0652503 -1 9 C-1.99 9.495 -1.99 9.495 -3 10 C-3.99 9.34 -4.98 8.68 -6 8 C-4.68 8 -3.36 8 -2 8 C-2.061875 6.576875 -2.061875 6.576875 -2.125 5.125 C-2 2 -2 2 0 0 Z " fill="#59ED37" transform="translate(376,253)"/>
<path d="M0 0 C0.99 0 1.98 0 3 0 C2.82374165 2.37948772 2.30280227 3.70225849 0.59765625 5.37890625 C-0.90649092 6.62115486 -2.45129851 7.81376056 -4 9 C-4 7.68 -4 6.36 -4 5 C-3.01 5 -2.02 5 -1 5 C-0.67 3.35 -0.34 1.7 0 0 Z " fill="#5ADC3C" transform="translate(349,254)"/>
<path d="M0 0 C2 3 2 3 1.75 5.125 C1 7 1 7 -1 8 C-1 6.68 -1 5.36 -1 4 C-2.65 4.33 -4.3 4.66 -6 5 C-2.25 1.125 -2.25 1.125 0 0 Z " fill="#5BD63C" transform="translate(349,191)"/>
<path d="M0 0 C1.65 0 3.3 0 5 0 C5 0.66 5 1.32 5 2 C6.32 2.33 7.64 2.66 9 3 C9 3.99 9 4.98 9 6 C8.01 6.33 7.02 6.66 6 7 C4.62437146 5.71034824 3.29233607 4.37310707 2 3 C2 2.34 2 1.68 2 1 C1.34 0.67 0.68 0.34 0 0 Z " fill="#243222" transform="translate(287,167)"/>
<path d="M0 0 C2 2 2 2 2.125 5.125 C2.08375 6.07375 2.0425 7.0225 2 8 C2.66 8 3.32 8 4 8 C4 9.32 4 10.64 4 12 C2.68 11.67 1.36 11.34 0 11 C0 7.37 0 3.74 0 0 Z " fill="#59F734" transform="translate(260,198)"/>
<path d="M0 0 C0.99 0 1.98 0 3 0 C3.33 1.65 3.66 3.3 4 5 C4.66 5 5.32 5 6 5 C6 5.66 6 6.32 6 7 C4.68 7.33 3.36 7.66 2 8 C0.74335022 5.09399739 0 3.20395416 0 0 Z " fill="#165814" transform="translate(287,204)"/>
<path d="M0 0 C0.66 0 1.32 0 2 0 C2 3.63 2 7.26 2 11 C1.34 10.67 0.68 10.34 0 10 C-0.44921875 7.96875 -0.44921875 7.96875 -0.6875 5.5 C-0.77386719 4.6853125 -0.86023438 3.870625 -0.94921875 3.03125 C-0.96597656 2.3609375 -0.98273438 1.690625 -1 1 C-0.67 0.67 -0.34 0.34 0 0 Z " fill="#122D16" transform="translate(402,128)"/>
<path d="M0 0 C0.33 1.32 0.66 2.64 1 4 C-1.31 4.33 -3.62 4.66 -6 5 C-5.25 3.0625 -5.25 3.0625 -4 1 C-1.875 0.25 -1.875 0.25 0 0 Z " fill="#5AF836" transform="translate(326,102)"/>
<path d="M0 0 C0.66 0.33 1.32 0.66 2 1 C0.92598892 3.91517292 0.22189824 5.77810176 -2 8 C-2.99 8 -3.98 8 -5 8 C-5 7.01 -5 6.02 -5 5 C-4.01 5 -3.02 5 -2 5 C-2 4.01 -2 3.02 -2 2 C-1.34 2 -0.68 2 0 2 C0 1.34 0 0.68 0 0 Z " fill="#14171F" transform="translate(352,264)"/>
<path d="M0 0 C0.103125 0.61875 0.20625 1.2375 0.3125 1.875 C0.87525373 4.36526484 0.87525373 4.36526484 4 6 C1.03 8.475 1.03 8.475 -2 11 C-1.79375 10.05125 -1.5875 9.1025 -1.375 8.125 C-1.25125 7.09375 -1.1275 6.0625 -1 5 C-1.66 4.34 -2.32 3.68 -3 3 C-2.01 2.01 -1.02 1.02 0 0 Z " fill="#5ED743" transform="translate(378,248)"/>
<path d="M0 0 C0.66 0.33 1.32 0.66 2 1 C2 1.66 2 2.32 2 3 C2.33 3.99 2.66 4.98 3 6 C1.68 6.33 0.36 6.66 -1 7 C-0.67 6.01 -0.34 5.02 0 4 C-0.99 4.33 -1.98 4.66 -3 5 C-3.33 4.01 -3.66 3.02 -4 2 C-2.125 0.9375 -2.125 0.9375 0 0 Z " fill="#1E1E29" transform="translate(372,266)"/>
<path d="M0 0 C0 2 0 2 -2.25 4.6875 C-3.1575 5.450625 -4.065 6.21375 -5 7 C-7.171875 6.64453125 -7.171875 6.64453125 -9 6 C-7.8803014 4.99406757 -6.7540588 3.9954151 -5.625 3 C-4.68527344 2.1646875 -4.68527344 2.1646875 -3.7265625 1.3125 C-2 0 -2 0 0 0 Z " fill="#103F10" transform="translate(306,258)"/>
<path d="M0 0 C2.8992226 0.46761655 3.86675182 0.86675182 6 3 C6 3.99 6 4.98 6 6 C3.11424181 5.60196439 2.17810487 5.20990931 0.25 2.9375 C-0.1625 2.298125 -0.575 1.65875 -1 1 C-0.67 0.67 -0.34 0.34 0 0 Z " fill="#5EF833" transform="translate(326,256)"/>
<path d="M0 0 C0.33 0 0.66 0 1 0 C1 4.62 1 9.24 1 14 C1.66 14 2.32 14 3 14 C2.67 14.99 2.34 15.98 2 17 C1.34 17 0.68 17 0 17 C0 11.39 0 5.78 0 0 Z " fill="#225A1D" transform="translate(302,235)"/>
<path d="M0 0 C0.99 0.33 1.98 0.66 3 1 C3 1.66 3 2.32 3 3 C2.34 3 1.68 3 1 3 C1 4.32 1 5.64 1 7 C0.01 7 -0.98 7 -2 7 C-2.125 4.625 -2.125 4.625 -2 2 C-1.34 1.34 -0.68 0.68 0 0 Z " fill="#5AF139" transform="translate(316,108)"/>
<path d="M0 0 C1.17539996 0.92652701 2.34010577 1.86663387 3.5 2.8125 C4.1496875 3.33457031 4.799375 3.85664063 5.46875 4.39453125 C7 6 7 6 7 9 C6.67 8.34 6.34 7.68 6 7 C5.360625 6.9175 4.72125 6.835 4.0625 6.75 C3.381875 6.5025 2.70125 6.255 2 6 C0.75 2.9375 0.75 2.9375 0 0 Z " fill="#1B5517" transform="translate(359,253)"/>
<path d="M0 0 C2.46800047 1.15173355 4.04783565 2.04783565 6 4 C8.06874034 4.6425235 8.06874034 4.6425235 10 5 C9.67 5.99 9.34 6.98 9 8 C4.7257442 6.4169423 2.73468206 3.49431596 0 0 Z " fill="#1C5715" transform="translate(363,248)"/>
<path d="M0 0 C0.66 0 1.32 0 2 0 C2 4.29 2 8.58 2 13 C1.67 13 1.34 13 1 13 C0.63901937 11.02206479 0.28638652 9.04260427 -0.0625 7.0625 C-0.25972656 5.96035156 -0.45695312 4.85820312 -0.66015625 3.72265625 C-0.77230469 2.82417969 -0.88445312 1.92570313 -1 1 C-0.67 0.67 -0.34 0.34 0 0 Z " fill="#102615" transform="translate(287,234)"/>
<path d="M0 0 C2.475 0.99 2.475 0.99 5 2 C5.33 1.34 5.66 0.68 6 0 C6.66 1.32 7.32 2.64 8 4 C7.01 4.66 6.02 5.32 5 6 C3.35 4.02 1.7 2.04 0 0 Z " fill="#274928" transform="translate(357,242)"/>
<path d="M0 0 C0.33 0 0.66 0 1 0 C1.05422947 1.4370809 1.09289723 2.87475462 1.125 4.3125 C1.14820313 5.11300781 1.17140625 5.91351563 1.1953125 6.73828125 C1 9 1 9 -1 12 C-3.625 12.1875 -3.625 12.1875 -6 12 C-4.7934375 11.2575 -4.7934375 11.2575 -3.5625 10.5 C-0.01911662 7.04304061 -0.2426059 4.85211791 0 0 Z " fill="#69DB55" transform="translate(356,143)"/>
<path d="M0 0 C-1.09445838 0.86657116 -2.20097781 1.71792724 -3.3125 2.5625 C-3.92738281 3.03816406 -4.54226563 3.51382813 -5.17578125 4.00390625 C-5.77777344 4.33261719 -6.37976563 4.66132813 -7 5 C-7.99 4.67 -8.98 4.34 -10 4 C-9.34 4 -8.68 4 -8 4 C-8 3.34 -8 2.68 -8 2 C-3.61016949 -1.20338983 -3.61016949 -1.20338983 0 0 Z " fill="#224D23" transform="translate(355,141)"/>
<path d="M0 0 C0.99 0.33 1.98 0.66 3 1 C0.36 2.98 -2.28 4.96 -5 7 C-5 5.35 -5 3.7 -5 2 C-3.35 2 -1.7 2 0 2 C0 1.34 0 0.68 0 0 Z " fill="#164015" transform="translate(317,103)"/>
<path d="M0 0 C0.66 0 1.32 0 2 0 C2 1.32 2 2.64 2 4 C2.99 4.33 3.98 4.66 5 5 C3.68 5.99 2.36 6.98 1 8 C1 6.35 1 4.7 1 3 C0.34 3 -0.32 3 -1 3 C-0.67 2.01 -0.34 1.02 0 0 Z " fill="#5BE03F" transform="translate(340,259)"/>
<path d="M0 0 C0.99 0.33 1.98 0.66 3 1 C2.01 1.33 1.02 1.66 0 2 C-0.70211894 3.65204456 -1.36971413 5.31923769 -2 7 C-2.99 7.495 -2.99 7.495 -4 8 C-3.50168276 4.31245243 -2.89932357 2.39509338 0 0 Z " fill="#184F13" transform="translate(356,251)"/>
<path d="M0 0 C-0.625 1.9375 -0.625 1.9375 -2 4 C-5.125 4.75 -5.125 4.75 -8 5 C-3.375 0 -3.375 0 0 0 Z " fill="#61D24B" transform="translate(357,141)"/>
<path d="M0 0 C2.31 0 4.62 0 7 0 C5.35 1.65 3.7 3.3 2 5 C0 1.125 0 1.125 0 0 Z " fill="#5DE140" transform="translate(304,253)"/>
<path d="M0 0 C1.32 1.32 2.64 2.64 4 4 C1.36 4.33 -1.28 4.66 -4 5 C-2.68 3.35 -1.36 1.7 0 0 Z " fill="#5DD24A" transform="translate(356,242)"/>
<path d="M0 0 C-0.3125 1.875 -0.3125 1.875 -1 4 C-1.99 4.66 -2.98 5.32 -4 6 C-4.33 4.35 -4.66 2.7 -5 1 C-2 0 -2 0 0 0 Z " fill="#60E544" transform="translate(355,190)"/>
<path d="M0 0 C-0.99843096 2.99529289 -1.51384442 4.15840327 -4 6 C-6.1875 5.6875 -6.1875 5.6875 -8 5 C-2.25 0 -2.25 0 0 0 Z " fill="#24442C" transform="translate(376,176)"/>
<path d="M0 0 C2.31 1.98 4.62 3.96 7 6 C6.34 6.66 5.68 7.32 5 8 C0 2.25 0 2.25 0 0 Z " fill="#ABE27E" transform="translate(290,171)"/>
<path d="M0 0 C2.97 0 5.94 0 9 0 C9 0.66 9 1.32 9 2 C6.69 2.33 4.38 2.66 2 3 C2 2.34 2 1.68 2 1 C1.34 0.67 0.68 0.34 0 0 Z " fill="#233E2C" transform="translate(317,156)"/>
<path d="M0 0 C-0.6875 1.9375 -0.6875 1.9375 -2 4 C-4.625 4.75 -4.625 4.75 -7 5 C-6 2 -6 2 -4.0625 0.8125 C-2 0 -2 0 0 0 Z " fill="#131B19" transform="translate(294,275)"/>
<path d="M0 0 C1.65 0 3.3 0 5 0 C5 0.99 5 1.98 5 3 C3.02 3 1.04 3 -1 3 C-0.67 2.01 -0.34 1.02 0 0 Z " fill="#0D2A11" transform="translate(297,230)"/>
<path d="M0 0 C0.99 0.33 1.98 0.66 3 1 C2.67 1.99 2.34 2.98 2 4 C0.02 4 -1.96 4 -4 4 C-2.68 2.68 -1.36 1.36 0 0 Z " fill="#62D74C" transform="translate(358,185)"/>
<path d="M0 0 C1.98 0.66 3.96 1.32 6 2 C6 2.33 6 2.66 6 3 C4.35 3 2.7 3 1 3 C1 4.65 1 6.3 1 8 C0.67 8 0.34 8 0 8 C0 5.36 0 2.72 0 0 Z " fill="#5EF33A" transform="translate(317,143)"/>
<path d="M0 0 C3.34373475 0.55728913 6.03312999 1.35173889 9 3 C9 3.66 9 4.32 9 5 C5.54074837 3.7508258 2.85306797 2.32472205 0 0 Z " fill="#61D64D" transform="translate(368,104)"/>
</svg>