<?xml version="1.0" encoding="UTF-8"?>
<svg version="1.1" xmlns="http://www.w3.org/2000/svg" width="148" height="148">
<path d="M0 0 C48.84 0 97.68 0 148 0 C148 48.84 148 97.68 148 148 C99.16 148 50.32 148 0 148 C0 99.16 0 50.32 0 0 Z " fill="#030303" transform="translate(0,0)"/>
<path d="M0 0 C0 25.08 0 50.16 0 76 C-23.1 76 -46.2 76 -70 76 C-68 64 -68 64 -67 63 C-64.32941149 62.85884839 -61.67567762 62.95752893 -59 63 C-57.35 65.97 -55.7 68.94 -54 72 C-51.36 71.67 -48.72 71.34 -46 71 C-46.33 69.783125 -46.66 68.56625 -47 67.3125 C-48.56739608 60.83698042 -48.56739608 60.83698042 -48 58 C-45.75 56.125 -45.75 56.125 -43 55 C-39.55264219 55.43091973 -37.44871332 56.9485079 -34.75 59.0625 C-34.04359375 59.61035156 -33.3371875 60.15820312 -32.609375 60.72265625 C-32.07828125 61.14417969 -31.5471875 61.56570312 -31 62 C-29.35 60.35 -27.7 58.7 -26 57 C-26.38414063 56.39671875 -26.76828125 55.7934375 -27.1640625 55.171875 C-27.64617187 54.37265625 -28.12828125 53.5734375 -28.625 52.75 C-29.11226562 51.96109375 -29.59953125 51.1721875 -30.1015625 50.359375 C-31 48 -31 48 -30.3984375 45.890625 C-28.72310673 43.62565268 -27.52930622 42.28676243 -25 41 C-22.203125 41.58203125 -22.203125 41.58203125 -19.25 42.8125 C-18.26515625 43.21082031 -17.2803125 43.60914063 -16.265625 44.01953125 C-15.14414063 44.50486328 -15.14414063 44.50486328 -14 45 C-12.94868439 43.36521767 -11.95097976 41.69511512 -11 40 C-11.91637079 35.81087638 -15.78362997 33.51715916 -19 31 C-17.125 25.25 -17.125 25.25 -16 23 C-11.71 23 -7.42 23 -3 23 C-2.67 20.36 -2.34 17.72 -2 15 C-2.63808594 14.79503906 -3.27617187 14.59007813 -3.93359375 14.37890625 C-4.75988281 14.10949219 -5.58617187 13.84007813 -6.4375 13.5625 C-7.26121094 13.29566406 -8.08492187 13.02882813 -8.93359375 12.75390625 C-11 12 -11 12 -12 11 C-12.14115161 8.32941149 -12.04247107 5.67567762 -12 3 C-10.75336669 2.49166409 -9.50250613 1.99368855 -8.25 1.5 C-7.55390625 1.2215625 -6.8578125 0.943125 -6.140625 0.65625 C-4 0 -4 0 0 0 Z " fill="#FAFAFA" transform="translate(148,72)"/>
<path d="M0 0 C11 2 11 2 12 3 C12.14115161 5.67058851 12.04247107 8.32432238 12 11 C9.03 12.32 6.06 13.64 3 15 C3 17.64 3 20.28 3 23 C7.29 23 11.58 23 16 23 C18 28 18 28 18 31 C16.46875 32.60546875 16.46875 32.60546875 14.5 34.1875 C13.8503125 34.71730469 13.200625 35.24710938 12.53125 35.79296875 C12.0259375 36.19128906 11.520625 36.58960938 11 37 C11.309375 37.763125 11.61875 38.52625 11.9375 39.3125 C12.67893593 41.18789677 13.36228217 43.08684652 14 45 C14.51949219 44.71125 15.03898438 44.4225 15.57421875 44.125 C23.11327041 40.11160466 23.11327041 40.11160466 27 41 C28.875 42.6875 28.875 42.6875 30 45 C29.76741771 49.30277232 27.75072131 53.11796579 26 57 C28.2203103 59.05584287 29.35780846 60 32.4375 60 C35.79135053 58.69118028 37.61908898 56.65301514 40 54 C45.875 55.875 45.875 55.875 47 57 C47.15088074 61.52642225 47.10424872 65.58300512 46 70 C48.64 70.33 51.28 70.66 54 71 C55.65 68.03 57.3 65.06 59 62 C65.15234375 61.90234375 65.15234375 61.90234375 67 62 C70.14466038 65.14466038 69.26888131 70.61328788 70 75 C46.9 75 23.8 75 0 75 C0 50.25 0 25.5 0 0 Z " fill="#FBFBFB" transform="translate(0,73)"/>
<path d="M0 0 C21.78 0 43.56 0 66 0 C66 21.78 66 43.56 66 66 C65.67 65.01 65.34 64.02 65 63 C61.04 62.67 57.08 62.34 53 62 C52.34 59.36 51.68 56.72 51 54 C53.97 52.02 56.94 50.04 60 48 C59.34 45.69 58.68 43.38 58 41 C51.565 41.495 51.565 41.495 45 42 C42 37 42 37 42.5 34.625 C44.44498 31.22128501 46.65711784 28.14439448 49 25 C45.18361565 22.88240386 45.18361565 22.88240386 41 22 C40.01 22.66 39.02 23.32 38 24 C35 26 35 26 32.875 25.9375 C31 25 31 25 27 22 C27.66 18.04 28.32 14.08 29 10 C25.45653055 7.85558728 25.45653055 7.85558728 23.0625 8 C20.6425156 8.98124883 20.6425156 8.98124883 18.625 12.125 C17.325625 13.548125 17.325625 13.548125 16 15 C12.60993869 14.93219877 10.20144205 14.06714735 7 13 C7 9.04 7 5.08 7 1 C4.69 1 2.38 1 0 1 C0 0.67 0 0.34 0 0 Z " fill="#FAFAFA" transform="translate(82,0)"/>
<path d="M0 0 C21.12 0 42.24 0 64 0 C64 0.33 64 0.66 64 1 C61.69 1 59.38 1 57 1 C57 4.96 57 8.92 57 13 C50.75 15.5 50.75 15.5 47 14 C45.09608907 12.11695385 43.60886938 10.16048174 42 8 C40.02 8.99 38.04 9.98 36 11 C36.66 14.96 37.32 18.92 38 23 C33.86010363 26.25906736 33.86010363 26.25906736 31 27 C27.64022878 25.84640767 24.87719872 24.0616662 22 22 C19.85432087 23.72855926 19.85432087 23.72855926 18 26 C18 29.06237633 19.13168573 30.15492438 21.125 32.5 C23 35 23 35 22.9375 37.0625 C22.628125 37.701875 22.31875 38.34125 22 39 C21.67 39.763125 21.34 40.52625 21 41.3125 C19 43 19 43 16.90625 43.0625 C13.42735046 42.70105589 10.32385681 42.10795227 7 41 C6.67 43.64 6.34 46.28 6 49 C8.64 50.65 11.28 52.3 14 54 C13.125 61.875 13.125 61.875 12 63 C10.15108054 63.23363881 8.29511969 63.41303635 6.4375 63.5625 C5.42558594 63.64628906 4.41367188 63.73007812 3.37109375 63.81640625 C2.58863281 63.87699219 1.80617187 63.93757813 1 64 C1 66.31 1 68.62 1 71 C0.67 71 0.34 71 0 71 C0 47.57 0 24.14 0 0 Z " fill="#FAFAFA" transform="translate(0,0)"/>
<path d="M0 0 C3.07469523 1.70251719 5.40613254 3.81226508 7 7 C7.51512617 11.09157355 7.94367269 15.23589546 5.953125 18.95703125 C3.53970359 21.87443183 1.59054752 23.80294102 -2.20703125 24.2734375 C-9.26840855 24.54869359 -9.26840855 24.54869359 -13 21.75 C-16.47610445 16.97035639 -17.82653391 14.09568759 -17 8 C-12.56269537 1.12626124 -8.16928811 -1.26103105 0 0 Z " fill="#F7F7F7" transform="translate(79,62)"/>
<path d="M0 0 C0.7734375 0.4640625 1.546875 0.928125 2.34375 1.40625 C3.15457031 1.83164063 3.96539062 2.25703125 4.80078125 2.6953125 C8.07226562 4.55078125 8.07226562 4.55078125 11.34375 6.40625 C11.34375 12.67625 11.34375 18.94625 11.34375 25.40625 C-0.4790487 23.43578355 -8.48078828 19.50312646 -16.65625 10.40625 C-16.65625 9.41625 -16.65625 8.42625 -16.65625 7.40625 C-14.43893064 6.00804862 -12.21086846 4.63861642 -9.96875 3.28125 C-9.34291016 2.88292969 -8.71707031 2.48460938 -8.07226562 2.07421875 C-3.34449377 -0.74759272 -3.34449377 -0.74759272 0 0 Z " fill="#F7F7F7" transform="translate(57.65625,90.59375)"/>
<path d="M0 0 C2.29502538 1.3110471 4.52326146 2.64570702 6.75 4.0625 C7.35199219 4.43955078 7.95398438 4.81660156 8.57421875 5.20507812 C10.05249143 6.13193163 11.52666089 7.06532389 13 8 C8.38395787 15.54095362 1.25409621 20.77013626 -7 24 C-9.65875824 24.43023426 -12.32216269 24.69881175 -15 25 C-16.67430417 8.07092445 -16.67430417 8.07092445 -12.69140625 3.14453125 C-4.66679268 -2.02404455 -4.66679268 -2.02404455 0 0 Z " fill="#F9F9F9" transform="translate(95,91)"/>
<path d="M0 0 C4.36174292 5.12030691 4.19357139 10.32218149 4.1875 16.8125 C4.18814453 17.52083984 4.18878906 18.22917969 4.18945312 18.95898438 C4.13868469 23.97582899 3.58080982 28.25757053 2 33 C0.33057093 32.34028128 -1.33535503 31.67169885 -3 31 C-4.02738281 30.60425781 -5.05476563 30.20851563 -6.11328125 29.80078125 C-11.1138811 27.47449487 -14.31266966 25.83356686 -16.3046875 20.51953125 C-16.74587682 16.03110519 -16.62336218 13.22610816 -15 9 C-10.855698 4.75218998 -5.36182834 2.35537459 0 0 Z " fill="#F7F7F7" transform="translate(112,57)"/>
<path d="M0 0 C6.33157562 0.99545796 11.57662157 3.27975053 16 8 C17.86268035 13.39451581 17.90852573 17.61624832 16 23 C12.23614417 27.23185898 7.1083386 29.7398358 2 32 C1.34 32 0.68 32 0 32 C-4.19915019 24.721473 -4.22098816 14.16790339 -2.328125 6.15625 C-1.63039831 4.07623458 -0.8266651 2.03221837 0 0 Z " fill="#F7F7F7" transform="translate(35,58)"/>
<path d="M0 0 C1.51880424 16.09932498 1.51880424 16.09932498 -2.05078125 20.56640625 C-5.56548981 22.72730114 -8.2508601 24.11773057 -12.4375 23.8359375 C-15.69519814 22.7732128 -18.38175928 21.20882681 -21.3125 19.4375 C-22.91544922 18.47650391 -22.91544922 18.47650391 -24.55078125 17.49609375 C-25.35902344 17.00238281 -26.16726562 16.50867188 -27 16 C-26.49321623 11.9457298 -24.63171191 10.47443904 -21.5 8 C-14.40219091 2.57285924 -9.02675922 -0.26196157 0 0 Z " fill="#F7F7F7" transform="translate(69,33)"/>
<path d="M0 0 C8.52293407 -0.42561468 15.01995748 2.70869378 21.55078125 8.109375 C23.49937088 10.00604839 25.34668081 11.84095965 27 14 C27 14.66 27 15.32 27 16 C24.78045349 17.37257477 22.55164591 18.72259151 20.3125 20.0625 C19.37374023 20.64741211 19.37374023 20.64741211 18.41601562 21.24414062 C15.59190193 22.91495135 13.63923381 24.03902299 10.3125 23.8359375 C9.549375 23.56007813 8.78625 23.28421875 8 23 C7.26136719 22.81566406 6.52273437 22.63132812 5.76171875 22.44140625 C2.99198594 21.26779065 1.75963234 20.49174214 0 18 C-1.0557113 12.08743902 -0.44492521 5.9508747 0 0 Z " fill="#FAFAFA" transform="translate(80,33)"/>
<path d="M0 0 C0 6.27 0 12.54 0 19 C-0.66 19.33 -1.32 19.66 -2 20 C-2 18.35 -2 16.7 -2 15 C-2.63808594 14.79503906 -3.27617187 14.59007813 -3.93359375 14.37890625 C-4.75988281 14.10949219 -5.58617187 13.84007813 -6.4375 13.5625 C-7.26121094 13.29566406 -8.08492187 13.02882813 -8.93359375 12.75390625 C-11 12 -11 12 -12 11 C-12.14115161 8.32941149 -12.04247107 5.67567762 -12 3 C-10.75336669 2.49166409 -9.50250613 1.99368855 -8.25 1.5 C-7.55390625 1.2215625 -6.8578125 0.943125 -6.140625 0.65625 C-4 0 -4 0 0 0 Z " fill="#F4F4F4" transform="translate(148,72)"/>
<path d="M0 0 C1.81332154 0.30769707 3.62564345 0.62129064 5.4375 0.9375 C6.95150391 1.19853516 6.95150391 1.19853516 8.49609375 1.46484375 C11 2 11 2 12 3 C12.14115161 5.67058851 12.04247107 8.32432238 12 11 C11.37351562 11.26554687 10.74703125 11.53109375 10.1015625 11.8046875 C9.28429688 12.15789062 8.46703125 12.51109375 7.625 12.875 C6.40683594 13.39707031 6.40683594 13.39707031 5.1640625 13.9296875 C2.86197701 14.92446067 2.86197701 14.92446067 1 17 C-0.53266582 13.93466836 -0.10276471 10.73245728 -0.0625 7.375 C-0.05798828 6.66859375 -0.05347656 5.9621875 -0.04882812 5.234375 C-0.03703875 3.48954725 -0.01910324 1.744763 0 0 Z " fill="#F3F3F3" transform="translate(0,73)"/>
<path d="M0 0 C4.95 0 9.9 0 15 0 C14.01 3.63 13.02 7.26 12 11 C9.03 11 6.06 11 3 11 C0 4.5 0 4.5 0 0 Z " fill="#F5F5F5" transform="translate(66,0)"/>
</svg>
